<svg width="604" height="286" viewBox="0 0 604 286" fill="none" xmlns="http://www.w3.org/2000/svg">
<mask id="path-1-outside-1_206_15" maskUnits="userSpaceOnUse" x="-2" y="-2" width="608" height="289" fill="black">
<rect fill="white" x="-2" y="-2" width="608" height="289"/>
<path d="M265.559 274.4C249.293 274.4 235.026 271.467 222.759 265.6C210.759 259.467 201.026 250.267 193.559 238C182.093 219.067 172.893 204.133 165.959 193.2C159.293 182 154.093 173.467 150.359 167.6C146.626 161.733 143.559 157.333 141.159 154.4C138.759 151.2 136.226 148.4 133.559 146C129.293 146.533 125.159 146.933 121.159 147.2C117.426 147.467 113.693 147.6 109.959 147.6L116.359 136.8C138.226 136.8 156.226 131.2 170.359 120C184.493 108.8 192.359 92.6667 193.959 71.6C194.759 54.8 190.093 41.7333 179.959 32.4C170.093 23.0667 157.559 18.4 142.359 18.4C131.693 18.4 123.159 18.8 116.759 19.6C110.626 20.4 106.893 23.4667 105.559 28.8C104.226 36.8 102.893 47.4667 101.559 60.8C100.226 74.1333 98.8927 88.8 97.5594 104.8C96.226 120.8 95.026 136.8 93.9594 152.8C92.8927 168.533 91.9594 182.933 91.1594 196C90.626 209.067 90.3594 219.333 90.3594 226.8C90.3594 237.733 91.5594 245.6 93.9594 250.4C96.626 255.2 101.293 258.133 107.959 259.2C114.893 260.267 124.626 260.8 137.159 260.8L129.959 272.8C122.226 271.467 113.959 270.533 105.159 270C96.3594 269.2 87.1594 268.8 77.5594 268.8C70.626 268.8 60.626 269.2 47.5594 270C34.7594 270.533 19.026 271.467 0.359375 272.8L5.95938 261.2C8.09271 261.733 10.226 262 12.3594 262C16.8927 262 21.9594 261.333 27.5594 260C33.426 258.4 38.626 256.267 43.1594 253.6C47.6927 250.667 50.4927 247.333 51.5594 243.6C53.1594 237.733 54.7594 228.667 56.3594 216.4C57.9594 204.133 59.2927 190.267 60.3594 174.8C61.6927 159.067 62.7594 143.2 63.5594 127.2C64.626 111.2 65.426 96.4 65.9594 82.8C66.4927 69.2 66.7594 58.4 66.7594 50.4C66.7594 36.2666 65.6927 26.1333 63.5594 20C61.6927 13.8667 56.3594 10.8 47.5594 10.8C44.8927 10.8 41.9594 11.0667 38.7594 11.6C35.5594 12.1333 31.9594 12.8 27.9594 13.6L35.1594 1.6C37.826 1.86666 41.9594 2.39999 47.5594 3.19998C53.426 3.73332 60.0927 4.26665 67.5594 4.79998C75.026 5.06664 82.226 5.19998 89.1594 5.19998C93.1594 5.19998 98.3594 5.06664 104.759 4.79998C111.159 4.53332 117.693 4.13332 124.359 3.6C131.293 3.06665 137.426 2.66665 142.759 2.39999C148.359 2.13332 152.093 1.99999 153.959 1.99999C176.626 1.99999 194.626 5.99999 207.959 14C221.293 22 227.959 36.5333 227.959 57.6C227.959 68.8 225.293 79.8667 219.959 90.8C214.893 101.467 208.093 110.667 199.559 118.4C191.026 126.133 181.826 131.467 171.959 134.4C178.893 148.8 187.293 163.6 197.159 178.8C207.026 194 217.693 208 229.159 220.8C240.893 233.6 252.893 243.867 265.159 251.6C277.693 259.067 290.093 262.533 302.359 262L297.559 270.8C291.693 271.333 286.226 272 281.159 272.8C276.093 273.867 270.893 274.4 265.559 274.4ZM428.65 285.2C427.583 282.8 426.117 280.4 424.25 278C422.65 275.6 419.983 272.267 416.25 268C410.383 260.8 406.65 254.667 405.05 249.6C405.583 251.2 404.917 248.667 403.05 242C401.183 235.333 398.65 226.133 395.45 214.4C392.25 202.667 388.65 190 384.65 176.4C380.917 162.533 377.183 149.2 373.45 136.4C369.983 123.333 366.917 112.133 364.25 102.8C361.85 93.4667 360.25 87.6 359.45 85.2C354.65 67.6 350.783 53.4667 347.85 42.8C344.917 31.8667 340.917 23.8667 335.85 18.8C331.05 13.7333 323.05 11.2 311.85 11.2C309.45 11.2 307.317 11.3333 305.45 11.6C303.583 11.8667 301.85 12.1333 300.25 12.4L306.65 0.39999C307.983 0.666653 310.917 1.06666 315.45 1.6C320.25 2.13332 325.583 2.53332 331.45 2.79998C337.583 3.06665 343.317 3.33332 348.65 3.6C354.25 3.86666 358.383 3.99999 361.05 3.99999C369.583 3.99999 378.783 3.73332 388.65 3.19998C398.783 2.39999 409.717 1.33333 421.45 -4.76837e-06L412.65 12.4C407.85 12.1333 402.917 12.5333 397.85 13.6C392.783 14.4 388.65 16.2667 385.45 19.2C382.517 22.1333 381.45 26.5333 382.25 32.4C383.85 43.8667 386.517 57.4667 390.25 73.2C393.983 88.6667 398.25 105.2 403.05 122.8C408.117 140.133 413.45 157.467 419.05 174.8C424.65 191.867 429.983 207.867 435.05 222.8C436.917 220.4 439.85 215.733 443.85 208.8C447.85 201.867 452.25 193.6 457.05 184C462.117 174.4 467.05 164.4 471.85 154C476.917 143.6 481.45 133.867 485.45 124.8C497.183 97.8667 506.383 75.7333 513.05 58.4C519.717 40.8 523.05 29.4667 523.05 24.4C523.05 19.3333 521.05 16 517.05 14.4C513.05 12.8 508.25 12 502.65 12C500.25 12 497.717 12.1333 495.05 12.4C492.383 12.6667 489.717 12.9333 487.05 13.2L496.25 0.39999C498.117 1.2 502.25 1.86666 508.65 2.39999C515.317 2.66665 522.383 2.79998 529.85 2.79998C537.317 2.79998 543.45 2.79998 548.25 2.79998C557.05 2.79998 566.383 2.66665 576.25 2.39999C586.117 2.13332 595.317 1.46666 603.85 0.39999L596.25 11.6C587.45 11.6 578.65 14 569.85 18.8C555.45 27.6 530.517 68.4 495.05 141.2C461.983 209.2 441.983 256.267 435.05 282.4L428.65 285.2Z"/>
</mask>
<path d="M222.759 265.6L222.304 266.49L222.316 266.496L222.328 266.502L222.759 265.6ZM193.559 238L192.704 238.518L192.705 238.52L193.559 238ZM165.959 193.2L165.1 193.711L165.107 193.724L165.115 193.736L165.959 193.2ZM150.359 167.6L149.516 168.137L149.516 168.137L150.359 167.6ZM141.159 154.4L140.359 155L140.372 155.017L140.385 155.033L141.159 154.4ZM133.559 146L134.228 145.257L133.889 144.951L133.435 145.008L133.559 146ZM121.159 147.2L121.093 146.202L121.088 146.203L121.159 147.2ZM109.959 147.6L109.099 147.09L108.204 148.6H109.959V147.6ZM116.359 136.8V135.8H115.79L115.499 136.29L116.359 136.8ZM170.359 120L169.738 119.216L169.738 119.216L170.359 120ZM193.959 71.6L194.957 71.6757L194.958 71.6617L194.958 71.6476L193.959 71.6ZM179.959 32.4L179.272 33.1265L179.282 33.1355L179.959 32.4ZM116.759 19.6L116.635 18.6077L116.63 18.6084L116.759 19.6ZM105.559 28.8L104.589 28.5574L104.58 28.5962L104.573 28.6356L105.559 28.8ZM101.559 60.8L102.554 60.8995L102.554 60.8995L101.559 60.8ZM97.5594 104.8L96.5628 104.717L96.5628 104.717L97.5594 104.8ZM93.9594 152.8L94.9571 152.868L94.9572 152.867L93.9594 152.8ZM91.1594 196L90.1612 195.939L90.1606 195.949L90.1602 195.959L91.1594 196ZM93.9594 250.4L93.065 250.847L93.0747 250.867L93.0852 250.886L93.9594 250.4ZM107.959 259.2L107.801 260.187L107.807 260.188L107.959 259.2ZM137.159 260.8L138.017 261.314L138.926 259.8H137.159V260.8ZM129.959 272.8L129.789 273.785L130.464 273.902L130.817 273.314L129.959 272.8ZM105.159 270L105.069 270.996L105.084 270.997L105.099 270.998L105.159 270ZM47.5594 270L47.601 270.999L47.6108 270.999L47.6205 270.998L47.5594 270ZM0.359375 272.8L-0.541176 272.365L-1.29199 273.921L0.430622 273.797L0.359375 272.8ZM5.95938 261.2L6.20191 260.23L5.41256 260.033L5.05882 260.765L5.95938 261.2ZM27.5594 260L27.791 260.973L27.8068 260.969L27.8225 260.965L27.5594 260ZM43.1594 253.6L43.6664 254.462L43.6848 254.451L43.7026 254.44L43.1594 253.6ZM51.5594 243.6L52.521 243.875L52.5241 243.863L51.5594 243.6ZM56.3594 216.4L57.351 216.529L57.351 216.529L56.3594 216.4ZM60.3594 174.8L59.3629 174.716L59.3623 174.723L59.3617 174.731L60.3594 174.8ZM63.5594 127.2L62.5616 127.133L62.561 127.142L62.5606 127.15L63.5594 127.2ZM65.9594 82.8L66.9586 82.8392L66.9586 82.8392L65.9594 82.8ZM63.5594 20L62.6027 20.2912L62.6084 20.31L62.6149 20.3285L63.5594 20ZM27.9594 13.6L27.1019 13.0855L25.9388 15.0239L28.1555 14.5806L27.9594 13.6ZM35.1594 1.6L35.2589 0.604961L34.6281 0.54188L34.3019 1.0855L35.1594 1.6ZM47.5594 3.19998L47.418 4.18993L47.4433 4.19355L47.4688 4.19587L47.5594 3.19998ZM67.5594 4.79998L67.4881 5.79744L67.5059 5.79871L67.5237 5.79934L67.5594 4.79998ZM104.759 4.79998L104.718 3.80085L104.718 3.80085L104.759 4.79998ZM124.359 3.6L124.283 2.60294L124.28 2.60318L124.359 3.6ZM142.759 2.39999L142.712 1.40112L142.709 1.40124L142.759 2.39999ZM207.959 14L208.474 13.1425L208.474 13.1425L207.959 14ZM219.959 90.8L219.061 90.3615L219.056 90.3709L219.959 90.8ZM199.559 118.4L200.231 119.141L200.231 119.141L199.559 118.4ZM171.959 134.4L171.674 133.441L170.549 133.776L171.058 134.834L171.959 134.4ZM197.159 178.8L196.321 179.344L196.321 179.344L197.159 178.8ZM229.159 220.8L228.414 221.467L228.422 221.476L229.159 220.8ZM265.159 251.6L264.626 252.446L264.637 252.453L264.648 252.459L265.159 251.6ZM302.359 262L303.237 262.479L304.085 260.924L302.316 261.001L302.359 262ZM297.559 270.8L297.65 271.796L298.182 271.748L298.437 271.279L297.559 270.8ZM281.159 272.8L281.003 271.812L280.978 271.816L280.953 271.821L281.159 272.8ZM265.559 273.4C249.413 273.4 235.299 270.489 223.191 264.698L222.328 266.502C234.753 272.445 249.172 275.4 265.559 275.4V273.4ZM223.215 264.71C211.39 258.666 201.791 249.599 194.414 237.48L192.705 238.52C200.261 250.934 210.129 260.267 222.304 266.49L223.215 264.71ZM194.415 237.482C182.947 218.546 173.743 203.606 166.804 192.664L165.115 193.736C172.043 204.66 181.239 219.587 192.704 238.518L194.415 237.482ZM166.819 192.689C160.15 181.486 154.944 172.942 151.203 167.063L149.516 168.137C153.241 173.991 158.435 182.514 165.1 193.711L166.819 192.689ZM151.203 167.063C147.463 161.186 144.371 156.746 141.933 153.767L140.385 155.033C142.748 157.92 145.789 162.281 149.516 168.137L151.203 167.063ZM141.959 153.8C139.525 150.554 136.948 147.705 134.228 145.257L132.89 146.743C135.504 149.095 137.994 151.846 140.359 155L141.959 153.8ZM133.435 145.008C129.186 145.539 125.072 145.937 121.093 146.202L121.226 148.198C125.246 147.93 129.399 147.528 133.683 146.992L133.435 145.008ZM121.088 146.203C117.378 146.468 113.669 146.6 109.959 146.6V148.6C113.717 148.6 117.474 148.466 121.231 148.197L121.088 146.203ZM110.82 148.11L117.22 137.31L115.499 136.29L109.099 147.09L110.82 148.11ZM116.359 137.8C138.402 137.8 156.635 132.152 170.98 120.784L169.738 119.216C155.817 130.248 138.05 135.8 116.359 135.8V137.8ZM170.98 120.784C185.37 109.381 193.339 92.9684 194.957 71.6757L192.962 71.5243C191.379 92.3649 183.615 108.219 169.738 119.216L170.98 120.784ZM194.958 71.6476C195.769 54.6234 191.036 41.2423 180.637 31.6644L179.282 33.1355C189.15 42.2243 193.75 54.9766 192.961 71.5524L194.958 71.6476ZM180.647 31.6735C170.572 22.1431 157.782 17.4 142.359 17.4V19.4C157.337 19.4 169.614 23.9902 179.272 33.1265L180.647 31.6735ZM142.359 17.4C131.674 17.4 123.094 17.8003 116.635 18.6077L116.883 20.5923C123.224 19.7996 131.711 19.4 142.359 19.4V17.4ZM116.63 18.6084C113.429 19.0259 110.771 20.046 108.725 21.7273C106.67 23.4151 105.3 25.7126 104.589 28.5574L106.53 29.0425C107.152 26.554 108.316 24.6515 109.994 23.2727C111.681 21.8873 113.956 20.9741 116.889 20.5916L116.63 18.6084ZM104.573 28.6356C103.235 36.6664 101.899 47.3574 100.564 60.7005L102.554 60.8995C103.887 47.5759 105.218 36.9336 106.546 28.9644L104.573 28.6356ZM100.564 60.7005C99.2304 74.0402 97.8965 88.7125 96.5628 104.717L98.5559 104.883C99.8889 88.8875 101.222 74.2264 102.554 60.8995L100.564 60.7005ZM96.5628 104.717C95.229 120.722 94.0286 136.728 92.9616 152.733L94.9572 152.867C96.0235 136.872 97.2231 120.878 98.5559 104.883L96.5628 104.717ZM92.9617 152.732C91.8949 168.467 90.9614 182.87 90.1612 195.939L92.1575 196.061C92.9574 182.997 93.8905 168.599 94.9571 152.868L92.9617 152.732ZM90.1602 195.959C89.6267 209.031 89.3594 219.313 89.3594 226.8H91.3594C91.3594 219.353 91.6254 209.102 92.1585 196.041L90.1602 195.959ZM89.3594 226.8C89.3594 237.76 90.5547 245.827 93.065 250.847L94.8538 249.953C92.5641 245.373 91.3594 237.707 91.3594 226.8H89.3594ZM93.0852 250.886C95.9351 256.015 100.909 259.085 107.801 260.187L108.117 258.213C101.677 257.182 97.317 254.385 94.8335 249.914L93.0852 250.886ZM107.807 260.188C114.815 261.267 124.608 261.8 137.159 261.8V259.8C124.644 259.8 114.97 259.267 108.111 258.212L107.807 260.188ZM136.302 260.286L129.102 272.286L130.817 273.314L138.017 261.314L136.302 260.286ZM130.129 271.815C122.356 270.474 114.052 269.537 105.22 269.002L105.099 270.998C113.867 271.53 122.096 272.459 129.789 273.785L130.129 271.815ZM105.25 269.004C96.4174 268.201 87.187 267.8 77.5594 267.8V269.8C87.1317 269.8 96.3014 270.199 105.069 270.996L105.25 269.004ZM77.5594 267.8C70.595 267.8 60.5708 268.202 47.4983 269.002L47.6205 270.998C60.6813 270.198 70.657 269.8 77.5594 269.8V267.8ZM47.5177 269.001C34.7045 269.535 18.9606 270.469 0.288128 271.803L0.430622 273.797C19.0915 272.465 34.8142 271.532 47.601 270.999L47.5177 269.001ZM1.25993 273.235L6.85993 261.635L5.05882 260.765L-0.541176 272.365L1.25993 273.235ZM5.71684 262.17C7.92704 262.723 10.1418 263 12.3594 263V261C10.3103 261 8.25837 260.744 6.20191 260.23L5.71684 262.17ZM12.3594 263C16.9883 263 22.1344 262.32 27.791 260.973L27.3278 259.027C21.7843 260.347 16.7971 261 12.3594 261V263ZM27.8225 260.965C33.7617 259.345 39.0459 257.18 43.6664 254.462L42.6524 252.738C38.2062 255.353 33.0904 257.455 27.2963 259.035L27.8225 260.965ZM43.7026 254.44C48.36 251.426 51.3658 247.918 52.5209 243.875L50.5979 243.325C49.6197 246.749 47.0255 249.907 42.6161 252.76L43.7026 254.44ZM52.5241 243.863C54.1429 237.928 55.7498 228.805 57.351 216.529L55.3678 216.271C53.769 228.528 52.1758 237.539 50.5946 243.337L52.5241 243.863ZM57.351 216.529C58.9542 204.238 60.2893 190.351 61.357 174.869L59.3617 174.731C58.2961 190.182 56.9646 204.028 55.3678 216.271L57.351 216.529ZM61.3558 174.884C62.6901 159.139 63.7576 143.261 64.5581 127.25L62.5606 127.15C61.7612 143.139 60.6953 158.994 59.3629 174.716L61.3558 174.884ZM64.5572 127.267C65.6243 111.259 66.4249 96.4497 66.9586 82.8392L64.9601 82.7608C64.4272 96.3503 63.6278 111.141 62.5616 127.133L64.5572 127.267ZM66.9586 82.8392C67.4922 69.2338 67.7594 58.419 67.7594 50.4H65.7594C65.7594 58.381 65.4933 69.1662 64.9601 82.7608L66.9586 82.8392ZM67.7594 50.4C67.7594 36.2549 66.6966 25.9754 64.5039 19.6715L62.6149 20.3285C64.6889 26.2912 65.7594 36.2784 65.7594 50.4H67.7594ZM64.516 19.7088C63.5121 16.4103 61.5549 13.8989 58.6578 12.2331C55.788 10.5829 52.0634 9.8 47.5594 9.8V11.8C51.8554 11.8 55.1974 12.5504 57.6609 13.9669C60.0972 15.3678 61.7399 17.4564 62.6027 20.2912L64.516 19.7088ZM47.5594 9.8C44.8273 9.8 41.8381 10.0731 38.595 10.6136L38.9238 12.5864C42.0806 12.0602 44.9581 11.8 47.5594 11.8V9.8ZM38.595 10.6136C35.3821 11.1491 31.7713 11.8178 27.7633 12.6194L28.1555 14.5806C32.1475 13.7822 35.7367 13.1176 38.9238 12.5864L38.595 10.6136ZM28.8169 14.1145L36.0169 2.11449L34.3019 1.0855L27.1019 13.0855L28.8169 14.1145ZM35.0599 2.59504C37.7043 2.85948 41.8202 3.39025 47.418 4.18993L47.7008 2.21003C42.0986 1.40972 37.9478 0.873847 35.2589 0.604961L35.0599 2.59504ZM47.4688 4.19587C53.3434 4.72993 60.0167 5.26377 67.4881 5.79744L67.6306 3.80252C60.1688 3.26954 53.5087 2.73671 47.6499 2.20408L47.4688 4.19587ZM67.5237 5.79934C75.0013 6.0664 82.2133 6.19998 89.1594 6.19998V4.19998C82.2388 4.19998 75.0507 4.06689 67.5951 3.80062L67.5237 5.79934ZM89.1594 6.19998C93.1789 6.19998 98.3943 6.06606 104.801 5.79911L104.718 3.80085C98.3245 4.06723 93.1398 4.19998 89.1594 4.19998V6.19998ZM104.801 5.79911C111.214 5.5319 117.76 5.13111 124.439 4.59681L124.28 2.60318C117.625 3.13554 111.104 3.53474 104.718 3.80085L104.801 5.79911ZM124.436 4.59705C131.363 4.0642 137.487 3.66485 142.809 3.39874L142.709 1.40124C137.365 1.66845 131.222 2.06911 124.283 2.60294L124.436 4.59705ZM142.807 3.39886C148.411 3.132 152.12 2.99999 153.959 2.99999V0.999993C152.065 0.999993 148.308 1.13465 142.712 1.40112L142.807 3.39886ZM153.959 2.99999C176.523 2.99999 194.322 6.98399 207.445 14.8575L208.474 13.1425C194.93 5.01599 176.729 0.999993 153.959 0.999993V2.99999ZM207.445 14.8575C220.374 22.6148 226.959 36.7445 226.959 57.6H228.959C228.959 36.3221 222.212 21.3852 208.474 13.1425L207.445 14.8575ZM226.959 57.6C226.959 68.6353 224.333 79.5528 219.061 90.3616L220.858 91.2384C226.252 80.1805 228.959 68.9647 228.959 57.6H226.959ZM219.056 90.3709C214.044 100.923 207.322 110.016 198.888 117.659L200.231 119.141C208.864 111.318 215.741 102.011 220.863 91.2291L219.056 90.3709ZM198.888 117.659C190.452 125.304 181.381 130.556 171.674 133.441L172.244 135.359C182.271 132.378 191.6 126.963 200.231 119.141L198.888 117.659ZM171.058 134.834C178.012 149.277 186.434 164.114 196.321 179.344L197.998 178.256C188.152 163.086 179.773 148.323 172.86 133.966L171.058 134.834ZM196.321 179.344C206.214 194.585 216.912 208.627 228.415 221.467L229.904 220.133C218.474 207.373 207.838 193.415 197.998 178.256L196.321 179.344ZM228.422 221.476C240.204 234.329 252.271 244.657 264.626 252.446L265.693 250.754C253.514 243.076 241.581 232.871 229.897 220.124L228.422 221.476ZM264.648 252.459C277.316 260.006 289.907 263.542 302.403 262.999L302.316 261.001C290.278 261.524 278.069 258.127 265.671 250.741L264.648 252.459ZM301.481 261.521L296.681 270.321L298.437 271.279L303.237 262.479L301.481 261.521ZM297.469 269.804C291.583 270.339 286.095 271.008 281.003 271.812L281.315 273.788C286.357 272.992 291.802 272.328 297.65 271.796L297.469 269.804ZM280.953 271.821C275.956 272.873 270.826 273.4 265.559 273.4V275.4C270.96 275.4 276.229 274.86 281.365 273.779L280.953 271.821ZM428.65 285.2L427.736 285.606L428.14 286.515L429.051 286.116L428.65 285.2ZM424.25 278L423.418 278.555L423.438 278.585L423.461 278.614L424.25 278ZM416.25 268L415.475 268.632L415.486 268.645L415.497 268.659L416.25 268ZM405.05 249.6L405.999 249.284L404.096 249.901L405.05 249.6ZM403.05 242L402.087 242.27L402.087 242.27L403.05 242ZM395.45 214.4L394.485 214.663L394.485 214.663L395.45 214.4ZM384.65 176.4L383.684 176.66L383.687 176.671L383.691 176.682L384.65 176.4ZM373.45 136.4L372.483 136.656L372.487 136.668L372.49 136.68L373.45 136.4ZM364.25 102.8L363.282 103.049L363.285 103.062L363.288 103.075L364.25 102.8ZM359.45 85.2L358.485 85.4631L358.493 85.4899L358.501 85.5162L359.45 85.2ZM347.85 42.8L346.884 43.0591L346.886 43.0651L347.85 42.8ZM335.85 18.8L335.124 19.4877L335.133 19.4975L335.143 19.5071L335.85 18.8ZM305.45 11.6L305.309 10.61L305.309 10.61L305.45 11.6ZM300.25 12.4L299.368 11.9294L298.413 13.72L300.414 13.3864L300.25 12.4ZM306.65 0.39999L306.846 -0.580591L306.117 -0.726337L305.768 -0.0705986L306.65 0.39999ZM315.45 1.6L315.333 2.59317L315.34 2.59388L315.45 1.6ZM331.45 2.79998L331.405 3.79895L331.407 3.79904L331.45 2.79998ZM348.65 3.6L348.6 4.59875L348.602 4.59886L348.65 3.6ZM388.65 3.19998L388.704 4.19852L388.716 4.19785L388.729 4.19688L388.65 3.19998ZM421.45 -4.76837e-06L422.266 0.578743L423.561 -1.24629L421.337 -0.99361L421.45 -4.76837e-06ZM412.65 12.4L412.595 13.3984L413.146 13.4291L413.466 12.9787L412.65 12.4ZM397.85 13.6L398.006 14.5877L398.031 14.5838L398.056 14.5785L397.85 13.6ZM385.45 19.2L384.774 18.4628L384.758 18.4775L384.743 18.4929L385.45 19.2ZM382.25 32.4L381.259 32.5351L381.26 32.5382L382.25 32.4ZM390.25 73.2L389.277 73.4309L389.278 73.4346L390.25 73.2ZM403.05 122.8L402.085 123.063L402.088 123.072L402.09 123.081L403.05 122.8ZM419.05 174.8L418.098 175.107L418.1 175.112L419.05 174.8ZM435.05 222.8L434.103 223.121L434.7 224.879L435.839 223.414L435.05 222.8ZM443.85 208.8L444.716 209.3L444.716 209.3L443.85 208.8ZM457.05 184L456.166 183.533L456.16 183.543L456.156 183.553L457.05 184ZM471.85 154L470.951 153.562L470.946 153.571L470.942 153.581L471.85 154ZM485.45 124.8L486.365 125.204L486.367 125.199L485.45 124.8ZM513.05 58.4L513.983 58.759L513.985 58.7542L513.05 58.4ZM517.05 14.4L517.421 13.4715L517.421 13.4715L517.05 14.4ZM495.05 12.4L494.951 11.4049L494.95 11.4049L495.05 12.4ZM487.05 13.2L486.238 12.6164L484.945 14.4155L487.15 14.195L487.05 13.2ZM496.25 0.39999L496.644 -0.519153L495.906 -0.835266L495.438 -0.183646L496.25 0.39999ZM508.65 2.39999L508.567 3.39653L508.588 3.39833L508.61 3.39919L508.65 2.39999ZM603.85 0.39999L604.677 0.961491L605.918 -0.86626L603.726 -0.592288L603.85 0.39999ZM596.25 11.6V12.6H596.78L597.077 12.1615L596.25 11.6ZM569.85 18.8L569.371 17.9221L569.35 17.9339L569.329 17.9467L569.85 18.8ZM495.05 141.2L494.151 140.762L494.151 140.763L495.05 141.2ZM435.05 282.4L435.451 283.316L435.893 283.123L436.017 282.656L435.05 282.4ZM429.564 284.794C428.46 282.309 426.948 279.84 425.039 277.386L423.461 278.614C425.285 280.96 426.707 283.291 427.736 285.606L429.564 284.794ZM425.082 277.445C423.445 274.989 420.743 271.616 417.003 267.341L415.497 268.659C419.224 272.917 421.855 276.211 423.418 278.555L425.082 277.445ZM417.025 267.368C411.188 260.204 407.547 254.187 406.004 249.299L404.096 249.901C405.753 255.146 409.579 261.396 415.475 268.632L417.025 267.368ZM404.101 249.916C404.167 250.113 404.225 250.28 404.269 250.387C404.28 250.414 404.299 250.458 404.323 250.504C404.334 250.526 404.356 250.569 404.39 250.618C404.397 250.629 404.503 250.798 404.709 250.922C404.828 250.993 405.098 251.118 405.445 251.04C405.809 250.958 406.007 250.711 406.092 250.564C406.227 250.331 406.227 250.105 406.227 250.097C406.231 249.991 406.218 249.902 406.215 249.884C406.188 249.694 406.075 249.246 405.917 248.646C405.581 247.37 404.946 245.063 404.013 241.73L402.087 242.27C403.021 245.603 403.652 247.896 403.983 249.154C404.066 249.469 404.129 249.714 404.172 249.894C404.194 249.983 404.211 250.053 404.222 250.104C404.235 250.162 404.237 250.177 404.235 250.166C404.234 250.162 404.233 250.149 404.231 250.13C404.23 250.116 404.226 250.073 404.229 250.017C404.229 250.015 404.227 249.794 404.361 249.562C404.445 249.417 404.642 249.171 405.005 249.089C405.352 249.011 405.62 249.136 405.738 249.207C405.942 249.329 406.044 249.494 406.048 249.5C406.077 249.543 406.095 249.578 406.102 249.59C406.116 249.618 406.122 249.634 406.118 249.625C406.104 249.591 406.066 249.487 405.999 249.284L404.101 249.916ZM404.013 241.73C402.147 235.067 399.615 225.869 396.415 214.137L394.485 214.663C397.685 226.397 400.219 235.6 402.087 242.27L404.013 241.73ZM396.415 214.137C393.213 202.396 389.611 189.723 385.609 176.118L383.691 176.682C387.689 190.277 391.287 202.937 394.485 214.663L396.415 214.137ZM385.616 176.14C381.881 162.267 378.145 148.927 374.41 136.12L372.49 136.68C376.221 149.473 379.953 162.799 383.684 176.66L385.616 176.14ZM374.417 136.144C370.949 123.073 367.88 111.867 365.212 102.525L363.288 103.075C365.953 112.4 369.018 123.594 372.483 136.656L374.417 136.144ZM365.218 102.551C362.821 93.2292 361.212 87.3243 360.399 84.8838L358.501 85.5162C359.288 87.8757 360.879 93.7042 363.282 103.049L365.218 102.551ZM360.415 84.9369C355.615 67.3366 351.748 53.2025 348.814 42.5348L346.886 43.0651C349.819 53.7308 353.685 67.8634 358.485 85.4631L360.415 84.9369ZM348.816 42.5409C345.861 31.5272 341.8 23.3356 336.557 18.0929L335.143 19.5071C340.033 24.3977 343.972 32.2061 346.884 43.0591L348.816 42.5409ZM336.576 18.1122C331.499 12.7537 323.164 10.2 311.85 10.2V12.2C322.936 12.2 330.601 14.713 335.124 19.4877L336.576 18.1122ZM311.85 10.2C309.415 10.2 307.233 10.3352 305.309 10.61L305.591 12.5899C307.401 12.3315 309.485 12.2 311.85 12.2V10.2ZM305.309 10.61C303.435 10.8776 301.694 11.1455 300.086 11.4136L300.414 13.3864C302.006 13.1212 303.731 12.8557 305.591 12.5899L305.309 10.61ZM301.132 12.8706L307.532 0.870579L305.768 -0.0705986L299.368 11.9294L301.132 12.8706ZM306.454 1.38057C307.834 1.65663 310.81 2.06098 315.333 2.59315L315.567 0.606848C311.024 0.0723303 308.132 -0.323324 306.846 -0.580591L306.454 1.38057ZM315.34 2.59388C320.165 3.13006 325.521 3.5315 331.405 3.79895L331.495 1.80101C325.646 1.53514 320.335 1.13659 315.56 0.606115L315.34 2.59388ZM331.407 3.79904C337.538 4.06562 343.269 4.33219 348.6 4.59875L348.7 2.60124C343.364 2.33444 337.629 2.06767 331.493 1.80093L331.407 3.79904ZM348.602 4.59886C354.205 4.86565 358.358 4.99999 361.05 4.99999V2.99999C358.408 2.99999 354.295 2.86767 348.698 2.60113L348.602 4.59886ZM361.05 4.99999C369.604 4.99999 378.822 4.73269 388.704 4.19852L388.596 2.20144C378.745 2.73395 369.563 2.99999 361.05 2.99999V4.99999ZM388.729 4.19688C398.875 3.39585 409.82 2.32803 421.563 0.993601L421.337 -0.99361C409.613 0.338629 398.692 1.40412 388.571 2.20308L388.729 4.19688ZM420.635 -0.578753L411.834 11.8212L413.466 12.9787L422.266 0.578743L420.635 -0.578753ZM412.705 11.4015C407.811 11.1296 402.79 11.5381 397.644 12.6214L398.056 14.5785C403.043 13.5286 407.889 13.137 412.595 13.3984L412.705 11.4015ZM397.694 12.6122C392.469 13.4372 388.144 15.3741 384.774 18.4628L386.126 19.9371C389.156 17.1592 393.097 15.3628 398.006 14.5877L397.694 12.6122ZM384.743 18.4929C381.505 21.7307 380.436 26.4983 381.259 32.5351L383.241 32.2649C382.464 26.5683 383.528 22.5359 386.157 19.9071L384.743 18.4929ZM381.26 32.5382C382.865 44.0455 385.539 57.6779 389.277 73.4309L391.223 72.9691C387.494 57.2554 384.835 43.6878 383.24 32.2618L381.26 32.5382ZM389.278 73.4346C393.014 88.9121 397.283 105.455 402.085 123.063L404.015 122.537C399.217 104.945 394.953 88.4212 391.222 72.9654L389.278 73.4346ZM402.09 123.081C407.159 140.423 412.496 157.765 418.098 175.107L420.002 174.493C414.404 157.168 409.074 139.844 404.01 122.519L402.09 123.081ZM418.1 175.112C423.701 192.181 429.035 208.184 434.103 223.121L435.997 222.479C430.932 207.549 425.599 191.552 420 174.488L418.1 175.112ZM435.839 223.414C437.754 220.952 440.719 216.229 444.716 209.3L442.984 208.3C438.981 215.238 436.079 219.848 434.261 222.186L435.839 223.414ZM444.716 209.3C448.729 202.345 453.138 194.059 457.944 184.447L456.156 183.553C451.362 193.141 446.971 201.389 442.984 208.3L444.716 209.3ZM457.934 184.467C463.01 174.85 467.951 164.834 472.758 154.419L470.942 153.581C466.149 163.966 461.224 173.95 456.166 183.533L457.934 184.467ZM472.749 154.438C477.82 144.028 482.359 134.284 486.365 125.204L484.535 124.396C480.541 133.45 476.013 143.172 470.951 153.562L472.749 154.438ZM486.367 125.199C498.103 98.2594 507.309 76.1113 513.983 58.759L512.117 58.041C505.457 75.3553 496.264 97.4739 484.533 124.401L486.367 125.199ZM513.985 58.7542C517.323 49.9426 519.833 42.683 521.509 36.9822C523.177 31.3129 524.05 27.0908 524.05 24.4H522.05C522.05 26.7759 521.257 30.7537 519.591 36.4178C517.934 42.0503 515.444 49.2574 512.115 58.0458L513.985 58.7542ZM524.05 24.4C524.05 21.7392 523.525 19.448 522.407 17.5855C521.283 15.7111 519.601 14.3434 517.421 13.4715L516.679 15.3285C518.499 16.0566 519.817 17.1555 520.693 18.6145C521.575 20.0853 522.05 21.9941 522.05 24.4H524.05ZM517.421 13.4715C513.274 11.8124 508.341 11 502.65 11V13C508.159 13 512.826 13.7875 516.679 15.3285L517.421 13.4715ZM502.65 11C500.213 11 497.646 11.1353 494.951 11.4049L495.15 13.395C497.787 13.1313 500.287 13 502.65 13V11ZM494.95 11.4049C492.284 11.6716 489.617 11.9383 486.951 12.205L487.15 14.195C489.816 13.9284 492.483 13.6617 495.15 13.395L494.95 11.4049ZM487.862 13.7836L497.062 0.983626L495.438 -0.183646L486.238 12.6164L487.862 13.7836ZM495.856 1.31913C496.908 1.77 498.51 2.15159 500.591 2.48723C502.692 2.82618 505.353 3.12874 508.567 3.39653L508.733 1.40344C505.547 1.13791 502.941 0.840472 500.909 0.512753C498.857 0.181735 497.459 -0.170017 496.644 -0.519153L495.856 1.31913ZM508.61 3.39919C515.291 3.66644 522.372 3.79998 529.85 3.79998V1.79998C522.395 1.79998 515.342 1.66686 508.69 1.40079L508.61 3.39919ZM529.85 3.79998C529.865 3.79998 529.879 3.79998 529.894 3.79998C529.908 3.79998 529.923 3.79998 529.937 3.79998C529.952 3.79998 529.967 3.79998 529.981 3.79998C529.996 3.79998 530.01 3.79998 530.025 3.79998C530.039 3.79998 530.054 3.79998 530.068 3.79998C530.083 3.79998 530.097 3.79998 530.112 3.79998C530.126 3.79998 530.141 3.79998 530.156 3.79998C530.17 3.79998 530.185 3.79998 530.199 3.79998C530.214 3.79998 530.228 3.79998 530.243 3.79998C530.257 3.79998 530.272 3.79998 530.286 3.79998C530.3 3.79998 530.315 3.79998 530.329 3.79998C530.344 3.79998 530.358 3.79998 530.373 3.79998C530.387 3.79998 530.402 3.79998 530.416 3.79998C530.431 3.79998 530.445 3.79998 530.46 3.79998C530.474 3.79998 530.488 3.79998 530.503 3.79998C530.517 3.79998 530.532 3.79998 530.546 3.79998C530.561 3.79998 530.575 3.79998 530.589 3.79998C530.604 3.79998 530.618 3.79998 530.633 3.79998C530.647 3.79998 530.661 3.79998 530.676 3.79998C530.69 3.79998 530.705 3.79998 530.719 3.79998C530.733 3.79998 530.748 3.79998 530.762 3.79998C530.776 3.79998 530.791 3.79998 530.805 3.79998C530.819 3.79998 530.834 3.79998 530.848 3.79998C530.863 3.79998 530.877 3.79998 530.891 3.79998C530.906 3.79998 530.92 3.79998 530.934 3.79998C530.949 3.79998 530.963 3.79998 530.977 3.79998C530.992 3.79998 531.006 3.79998 531.02 3.79998C531.034 3.79998 531.049 3.79998 531.063 3.79998C531.077 3.79998 531.092 3.79998 531.106 3.79998C531.12 3.79998 531.134 3.79998 531.149 3.79998C531.163 3.79998 531.177 3.79998 531.192 3.79998C531.206 3.79998 531.22 3.79998 531.234 3.79998C531.249 3.79998 531.263 3.79998 531.277 3.79998C531.291 3.79998 531.306 3.79998 531.32 3.79998C531.334 3.79998 531.348 3.79998 531.363 3.79998C531.377 3.79998 531.391 3.79998 531.405 3.79998C531.419 3.79998 531.434 3.79998 531.448 3.79998C531.462 3.79998 531.476 3.79998 531.49 3.79998C531.505 3.79998 531.519 3.79998 531.533 3.79998C531.547 3.79998 531.561 3.79998 531.576 3.79998C531.59 3.79998 531.604 3.79998 531.618 3.79998C531.632 3.79998 531.646 3.79998 531.661 3.79998C531.675 3.79998 531.689 3.79998 531.703 3.79998C531.717 3.79998 531.731 3.79998 531.745 3.79998C531.76 3.79998 531.774 3.79998 531.788 3.79998C531.802 3.79998 531.816 3.79998 531.83 3.79998C531.844 3.79998 531.858 3.79998 531.873 3.79998C531.887 3.79998 531.901 3.79998 531.915 3.79998C531.929 3.79998 531.943 3.79998 531.957 3.79998C531.971 3.79998 531.985 3.79998 531.999 3.79998C532.013 3.79998 532.028 3.79998 532.042 3.79998C532.056 3.79998 532.07 3.79998 532.084 3.79998C532.098 3.79998 532.112 3.79998 532.126 3.79998C532.14 3.79998 532.154 3.79998 532.168 3.79998C532.182 3.79998 532.196 3.79998 532.21 3.79998C532.224 3.79998 532.238 3.79998 532.252 3.79998C532.266 3.79998 532.28 3.79998 532.294 3.79998C532.308 3.79998 532.322 3.79998 532.336 3.79998C532.35 3.79998 532.364 3.79998 532.378 3.79998C532.392 3.79998 532.406 3.79998 532.42 3.79998C532.434 3.79998 532.448 3.79998 532.462 3.79998C532.476 3.79998 532.49 3.79998 532.504 3.79998C532.518 3.79998 532.532 3.79998 532.546 3.79998C532.56 3.79998 532.574 3.79998 532.588 3.79998C532.601 3.79998 532.615 3.79998 532.629 3.79998C532.643 3.79998 532.657 3.79998 532.671 3.79998C532.685 3.79998 532.699 3.79998 532.713 3.79998C532.727 3.79998 532.741 3.79998 532.754 3.79998C532.768 3.79998 532.782 3.79998 532.796 3.79998C532.81 3.79998 532.824 3.79998 532.838 3.79998C532.852 3.79998 532.865 3.79998 532.879 3.79998C532.893 3.79998 532.907 3.79998 532.921 3.79998C532.935 3.79998 532.949 3.79998 532.962 3.79998C532.976 3.79998 532.99 3.79998 533.004 3.79998C533.018 3.79998 533.032 3.79998 533.045 3.79998C533.059 3.79998 533.073 3.79998 533.087 3.79998C533.101 3.79998 533.114 3.79998 533.128 3.79998C533.142 3.79998 533.156 3.79998 533.17 3.79998C533.183 3.79998 533.197 3.79998 533.211 3.79998C533.225 3.79998 533.239 3.79998 533.252 3.79998C533.266 3.79998 533.28 3.79998 533.294 3.79998C533.307 3.79998 533.321 3.79998 533.335 3.79998C533.349 3.79998 533.362 3.79998 533.376 3.79998C533.39 3.79998 533.404 3.79998 533.417 3.79998C533.431 3.79998 533.445 3.79998 533.459 3.79998C533.472 3.79998 533.486 3.79998 533.5 3.79998C533.513 3.79998 533.527 3.79998 533.541 3.79998C533.554 3.79998 533.568 3.79998 533.582 3.79998C533.596 3.79998 533.609 3.79998 533.623 3.79998C533.637 3.79998 533.65 3.79998 533.664 3.79998C533.678 3.79998 533.691 3.79998 533.705 3.79998C533.719 3.79998 533.732 3.79998 533.746 3.79998C533.76 3.79998 533.773 3.79998 533.787 3.79998C533.8 3.79998 533.814 3.79998 533.828 3.79998C533.841 3.79998 533.855 3.79998 533.869 3.79998C533.882 3.79998 533.896 3.79998 533.909 3.79998C533.923 3.79998 533.937 3.79998 533.95 3.79998C533.964 3.79998 533.977 3.79998 533.991 3.79998C534.005 3.79998 534.018 3.79998 534.032 3.79998C534.045 3.79998 534.059 3.79998 534.072 3.79998C534.086 3.79998 534.1 3.79998 534.113 3.79998C534.127 3.79998 534.14 3.79998 534.154 3.79998C534.167 3.79998 534.181 3.79998 534.194 3.79998C534.208 3.79998 534.221 3.79998 534.235 3.79998C534.248 3.79998 534.262 3.79998 534.276 3.79998C534.289 3.79998 534.303 3.79998 534.316 3.79998C534.33 3.79998 534.343 3.79998 534.357 3.79998C534.37 3.79998 534.384 3.79998 534.397 3.79998C534.411 3.79998 534.424 3.79998 534.437 3.79998C534.451 3.79998 534.464 3.79998 534.478 3.79998C534.491 3.79998 534.505 3.79998 534.518 3.79998C534.532 3.79998 534.545 3.79998 534.559 3.79998C534.572 3.79998 534.585 3.79998 534.599 3.79998C534.612 3.79998 534.626 3.79998 534.639 3.79998C534.653 3.79998 534.666 3.79998 534.679 3.79998C534.693 3.79998 534.706 3.79998 534.72 3.79998C534.733 3.79998 534.746 3.79998 534.76 3.79998C534.773 3.79998 534.787 3.79998 534.8 3.79998C534.813 3.79998 534.827 3.79998 534.84 3.79998C534.854 3.79998 534.867 3.79998 534.88 3.79998C534.894 3.79998 534.907 3.79998 534.92 3.79998C534.934 3.79998 534.947 3.79998 534.96 3.79998C534.974 3.79998 534.987 3.79998 535 3.79998C535.014 3.79998 535.027 3.79998 535.04 3.79998C535.054 3.79998 535.067 3.79998 535.08 3.79998C535.094 3.79998 535.107 3.79998 535.12 3.79998C535.134 3.79998 535.147 3.79998 535.16 3.79998C535.173 3.79998 535.187 3.79998 535.2 3.79998C535.213 3.79998 535.227 3.79998 535.24 3.79998C535.253 3.79998 535.266 3.79998 535.28 3.79998C535.293 3.79998 535.306 3.79998 535.319 3.79998C535.333 3.79998 535.346 3.79998 535.359 3.79998C535.372 3.79998 535.386 3.79998 535.399 3.79998C535.412 3.79998 535.425 3.79998 535.439 3.79998C535.452 3.79998 535.465 3.79998 535.478 3.79998C535.491 3.79998 535.505 3.79998 535.518 3.79998C535.531 3.79998 535.544 3.79998 535.557 3.79998C535.571 3.79998 535.584 3.79998 535.597 3.79998C535.61 3.79998 535.623 3.79998 535.636 3.79998C535.65 3.79998 535.663 3.79998 535.676 3.79998C535.689 3.79998 535.702 3.79998 535.715 3.79998C535.729 3.79998 535.742 3.79998 535.755 3.79998C535.768 3.79998 535.781 3.79998 535.794 3.79998C535.807 3.79998 535.82 3.79998 535.834 3.79998C535.847 3.79998 535.86 3.79998 535.873 3.79998C535.886 3.79998 535.899 3.79998 535.912 3.79998C535.925 3.79998 535.938 3.79998 535.952 3.79998C535.965 3.79998 535.978 3.79998 535.991 3.79998C536.004 3.79998 536.017 3.79998 536.03 3.79998C536.043 3.79998 536.056 3.79998 536.069 3.79998C536.082 3.79998 536.095 3.79998 536.108 3.79998C536.121 3.79998 536.134 3.79998 536.147 3.79998C536.161 3.79998 536.174 3.79998 536.187 3.79998C536.2 3.79998 536.213 3.79998 536.226 3.79998C536.239 3.79998 536.252 3.79998 536.265 3.79998C536.278 3.79998 536.291 3.79998 536.304 3.79998C536.317 3.79998 536.33 3.79998 536.343 3.79998C536.356 3.79998 536.369 3.79998 536.382 3.79998C536.395 3.79998 536.408 3.79998 536.421 3.79998C536.433 3.79998 536.446 3.79998 536.459 3.79998C536.472 3.79998 536.485 3.79998 536.498 3.79998C536.511 3.79998 536.524 3.79998 536.537 3.79998C536.55 3.79998 536.563 3.79998 536.576 3.79998C536.589 3.79998 536.602 3.79998 536.615 3.79998C536.628 3.79998 536.64 3.79998 536.653 3.79998C536.666 3.79998 536.679 3.79998 536.692 3.79998C536.705 3.79998 536.718 3.79998 536.731 3.79998C536.744 3.79998 536.756 3.79998 536.769 3.79998C536.782 3.79998 536.795 3.79998 536.808 3.79998C536.821 3.79998 536.834 3.79998 536.847 3.79998C536.859 3.79998 536.872 3.79998 536.885 3.79998C536.898 3.79998 536.911 3.79998 536.924 3.79998C536.936 3.79998 536.949 3.79998 536.962 3.79998C536.975 3.79998 536.988 3.79998 537.001 3.79998C537.013 3.79998 537.026 3.79998 537.039 3.79998C537.052 3.79998 537.065 3.79998 537.077 3.79998C537.09 3.79998 537.103 3.79998 537.116 3.79998C537.129 3.79998 537.141 3.79998 537.154 3.79998C537.167 3.79998 537.18 3.79998 537.192 3.79998C537.205 3.79998 537.218 3.79998 537.231 3.79998C537.243 3.79998 537.256 3.79998 537.269 3.79998C537.282 3.79998 537.294 3.79998 537.307 3.79998C537.32 3.79998 537.333 3.79998 537.345 3.79998C537.358 3.79998 537.371 3.79998 537.383 3.79998C537.396 3.79998 537.409 3.79998 537.422 3.79998C537.434 3.79998 537.447 3.79998 537.46 3.79998C537.472 3.79998 537.485 3.79998 537.498 3.79998C537.51 3.79998 537.523 3.79998 537.536 3.79998C537.548 3.79998 537.561 3.79998 537.574 3.79998C537.586 3.79998 537.599 3.79998 537.612 3.79998C537.624 3.79998 537.637 3.79998 537.65 3.79998C537.662 3.79998 537.675 3.79998 537.688 3.79998C537.7 3.79998 537.713 3.79998 537.725 3.79998C537.738 3.79998 537.751 3.79998 537.763 3.79998C537.776 3.79998 537.788 3.79998 537.801 3.79998C537.814 3.79998 537.826 3.79998 537.839 3.79998C537.851 3.79998 537.864 3.79998 537.877 3.79998C537.889 3.79998 537.902 3.79998 537.914 3.79998C537.927 3.79998 537.939 3.79998 537.952 3.79998C537.965 3.79998 537.977 3.79998 537.99 3.79998C538.002 3.79998 538.015 3.79998 538.027 3.79998C538.04 3.79998 538.052 3.79998 538.065 3.79998C538.077 3.79998 538.09 3.79998 538.102 3.79998C538.115 3.79998 538.127 3.79998 538.14 3.79998C538.153 3.79998 538.165 3.79998 538.178 3.79998C538.19 3.79998 538.203 3.79998 538.215 3.79998C538.227 3.79998 538.24 3.79998 538.252 3.79998C538.265 3.79998 538.277 3.79998 538.29 3.79998C538.302 3.79998 538.315 3.79998 538.327 3.79998C538.34 3.79998 538.352 3.79998 538.365 3.79998C538.377 3.79998 538.389 3.79998 538.402 3.79998C538.414 3.79998 538.427 3.79998 538.439 3.79998C538.452 3.79998 538.464 3.79998 538.476 3.79998C538.489 3.79998 538.501 3.79998 538.514 3.79998C538.526 3.79998 538.539 3.79998 538.551 3.79998C538.563 3.79998 538.576 3.79998 538.588 3.79998C538.6 3.79998 538.613 3.79998 538.625 3.79998C538.638 3.79998 538.65 3.79998 538.662 3.79998C538.675 3.79998 538.687 3.79998 538.699 3.79998C538.712 3.79998 538.724 3.79998 538.736 3.79998C538.749 3.79998 538.761 3.79998 538.774 3.79998C538.786 3.79998 538.798 3.79998 538.81 3.79998C538.823 3.79998 538.835 3.79998 538.847 3.79998C538.86 3.79998 538.872 3.79998 538.884 3.79998C538.897 3.79998 538.909 3.79998 538.921 3.79998C538.934 3.79998 538.946 3.79998 538.958 3.79998C538.97 3.79998 538.983 3.79998 538.995 3.79998C539.007 3.79998 539.02 3.79998 539.032 3.79998C539.044 3.79998 539.056 3.79998 539.069 3.79998C539.081 3.79998 539.093 3.79998 539.105 3.79998C539.118 3.79998 539.13 3.79998 539.142 3.79998C539.154 3.79998 539.166 3.79998 539.179 3.79998C539.191 3.79998 539.203 3.79998 539.215 3.79998C539.228 3.79998 539.24 3.79998 539.252 3.79998C539.264 3.79998 539.276 3.79998 539.289 3.79998C539.301 3.79998 539.313 3.79998 539.325 3.79998C539.337 3.79998 539.35 3.79998 539.362 3.79998C539.374 3.79998 539.386 3.79998 539.398 3.79998C539.41 3.79998 539.423 3.79998 539.435 3.79998C539.447 3.79998 539.459 3.79998 539.471 3.79998C539.483 3.79998 539.495 3.79998 539.508 3.79998C539.52 3.79998 539.532 3.79998 539.544 3.79998C539.556 3.79998 539.568 3.79998 539.58 3.79998C539.592 3.79998 539.604 3.79998 539.617 3.79998C539.629 3.79998 539.641 3.79998 539.653 3.79998C539.665 3.79998 539.677 3.79998 539.689 3.79998C539.701 3.79998 539.713 3.79998 539.725 3.79998C539.737 3.79998 539.749 3.79998 539.762 3.79998C539.774 3.79998 539.786 3.79998 539.798 3.79998C539.81 3.79998 539.822 3.79998 539.834 3.79998C539.846 3.79998 539.858 3.79998 539.87 3.79998C539.882 3.79998 539.894 3.79998 539.906 3.79998C539.918 3.79998 539.93 3.79998 539.942 3.79998C539.954 3.79998 539.966 3.79998 539.978 3.79998C539.99 3.79998 540.002 3.79998 540.014 3.79998C540.026 3.79998 540.038 3.79998 540.05 3.79998C540.062 3.79998 540.074 3.79998 540.086 3.79998C540.098 3.79998 540.11 3.79998 540.122 3.79998C540.134 3.79998 540.146 3.79998 540.158 3.79998C540.17 3.79998 540.182 3.79998 540.194 3.79998C540.205 3.79998 540.217 3.79998 540.229 3.79998C540.241 3.79998 540.253 3.79998 540.265 3.79998C540.277 3.79998 540.289 3.79998 540.301 3.79998C540.313 3.79998 540.325 3.79998 540.337 3.79998C540.348 3.79998 540.36 3.79998 540.372 3.79998C540.384 3.79998 540.396 3.79998 540.408 3.79998C540.42 3.79998 540.432 3.79998 540.443 3.79998C540.455 3.79998 540.467 3.79998 540.479 3.79998C540.491 3.79998 540.503 3.79998 540.515 3.79998C540.526 3.79998 540.538 3.79998 540.55 3.79998C540.562 3.79998 540.574 3.79998 540.586 3.79998C540.597 3.79998 540.609 3.79998 540.621 3.79998C540.633 3.79998 540.645 3.79998 540.657 3.79998C540.668 3.79998 540.68 3.79998 540.692 3.79998C540.704 3.79998 540.716 3.79998 540.727 3.79998C540.739 3.79998 540.751 3.79998 540.763 3.79998C540.774 3.79998 540.786 3.79998 540.798 3.79998C540.81 3.79998 540.821 3.79998 540.833 3.79998C540.845 3.79998 540.857 3.79998 540.869 3.79998C540.88 3.79998 540.892 3.79998 540.904 3.79998C540.915 3.79998 540.927 3.79998 540.939 3.79998C540.951 3.79998 540.962 3.79998 540.974 3.79998C540.986 3.79998 540.997 3.79998 541.009 3.79998C541.021 3.79998 541.033 3.79998 541.044 3.79998C541.056 3.79998 541.068 3.79998 541.079 3.79998C541.091 3.79998 541.103 3.79998 541.114 3.79998C541.126 3.79998 541.138 3.79998 541.149 3.79998C541.161 3.79998 541.173 3.79998 541.184 3.79998C541.196 3.79998 541.208 3.79998 541.219 3.79998C541.231 3.79998 541.243 3.79998 541.254 3.79998C541.266 3.79998 541.278 3.79998 541.289 3.79998C541.301 3.79998 541.312 3.79998 541.324 3.79998C541.336 3.79998 541.347 3.79998 541.359 3.79998C541.37 3.79998 541.382 3.79998 541.394 3.79998C541.405 3.79998 541.417 3.79998 541.428 3.79998C541.44 3.79998 541.452 3.79998 541.463 3.79998C541.475 3.79998 541.486 3.79998 541.498 3.79998C541.509 3.79998 541.521 3.79998 541.532 3.79998C541.544 3.79998 541.556 3.79998 541.567 3.79998C541.579 3.79998 541.59 3.79998 541.602 3.79998C541.613 3.79998 541.625 3.79998 541.636 3.79998C541.648 3.79998 541.659 3.79998 541.671 3.79998C541.682 3.79998 541.694 3.79998 541.705 3.79998C541.717 3.79998 541.728 3.79998 541.74 3.79998C541.751 3.79998 541.763 3.79998 541.774 3.79998C541.786 3.79998 541.797 3.79998 541.809 3.79998C541.82 3.79998 541.832 3.79998 541.843 3.79998C541.855 3.79998 541.866 3.79998 541.878 3.79998C541.889 3.79998 541.9 3.79998 541.912 3.79998C541.923 3.79998 541.935 3.79998 541.946 3.79998C541.958 3.79998 541.969 3.79998 541.98 3.79998C541.992 3.79998 542.003 3.79998 542.015 3.79998C542.026 3.79998 542.037 3.79998 542.049 3.79998C542.06 3.79998 542.072 3.79998 542.083 3.79998C542.094 3.79998 542.106 3.79998 542.117 3.79998C542.129 3.79998 542.14 3.79998 542.151 3.79998C542.163 3.79998 542.174 3.79998 542.185 3.79998C542.197 3.79998 542.208 3.79998 542.219 3.79998C542.231 3.79998 542.242 3.79998 542.254 3.79998C542.265 3.79998 542.276 3.79998 542.288 3.79998C542.299 3.79998 542.31 3.79998 542.321 3.79998C542.333 3.79998 542.344 3.79998 542.355 3.79998C542.367 3.79998 542.378 3.79998 542.389 3.79998C542.401 3.79998 542.412 3.79998 542.423 3.79998C542.434 3.79998 542.446 3.79998 542.457 3.79998C542.468 3.79998 542.48 3.79998 542.491 3.79998C542.502 3.79998 542.513 3.79998 542.525 3.79998C542.536 3.79998 542.547 3.79998 542.558 3.79998C542.57 3.79998 542.581 3.79998 542.592 3.79998C542.603 3.79998 542.615 3.79998 542.626 3.79998C542.637 3.79998 542.648 3.79998 542.659 3.79998C542.671 3.79998 542.682 3.79998 542.693 3.79998C542.704 3.79998 542.716 3.79998 542.727 3.79998C542.738 3.79998 542.749 3.79998 542.76 3.79998C542.771 3.79998 542.783 3.79998 542.794 3.79998C542.805 3.79998 542.816 3.79998 542.827 3.79998C542.839 3.79998 542.85 3.79998 542.861 3.79998C542.872 3.79998 542.883 3.79998 542.894 3.79998C542.905 3.79998 542.917 3.79998 542.928 3.79998C542.939 3.79998 542.95 3.79998 542.961 3.79998C542.972 3.79998 542.983 3.79998 542.994 3.79998C543.006 3.79998 543.017 3.79998 543.028 3.79998C543.039 3.79998 543.05 3.79998 543.061 3.79998C543.072 3.79998 543.083 3.79998 543.094 3.79998C543.105 3.79998 543.117 3.79998 543.128 3.79998C543.139 3.79998 543.15 3.79998 543.161 3.79998C543.172 3.79998 543.183 3.79998 543.194 3.79998C543.205 3.79998 543.216 3.79998 543.227 3.79998C543.238 3.79998 543.249 3.79998 543.26 3.79998C543.271 3.79998 543.282 3.79998 543.293 3.79998C543.304 3.79998 543.315 3.79998 543.326 3.79998C543.337 3.79998 543.348 3.79998 543.359 3.79998C543.37 3.79998 543.381 3.79998 543.392 3.79998C543.403 3.79998 543.414 3.79998 543.425 3.79998C543.436 3.79998 543.447 3.79998 543.458 3.79998C543.469 3.79998 543.48 3.79998 543.491 3.79998C543.502 3.79998 543.513 3.79998 543.524 3.79998C543.535 3.79998 543.546 3.79998 543.557 3.79998C543.568 3.79998 543.579 3.79998 543.59 3.79998C543.601 3.79998 543.612 3.79998 543.622 3.79998C543.633 3.79998 543.644 3.79998 543.655 3.79998C543.666 3.79998 543.677 3.79998 543.688 3.79998C543.699 3.79998 543.71 3.79998 543.721 3.79998C543.732 3.79998 543.742 3.79998 543.753 3.79998C543.764 3.79998 543.775 3.79998 543.786 3.79998C543.797 3.79998 543.808 3.79998 543.819 3.79998C543.829 3.79998 543.84 3.79998 543.851 3.79998C543.862 3.79998 543.873 3.79998 543.884 3.79998C543.894 3.79998 543.905 3.79998 543.916 3.79998C543.927 3.79998 543.938 3.79998 543.949 3.79998C543.959 3.79998 543.97 3.79998 543.981 3.79998C543.992 3.79998 544.003 3.79998 544.013 3.79998C544.024 3.79998 544.035 3.79998 544.046 3.79998C544.057 3.79998 544.067 3.79998 544.078 3.79998C544.089 3.79998 544.1 3.79998 544.11 3.79998C544.121 3.79998 544.132 3.79998 544.143 3.79998C544.154 3.79998 544.164 3.79998 544.175 3.79998C544.186 3.79998 544.197 3.79998 544.207 3.79998C544.218 3.79998 544.229 3.79998 544.239 3.79998C544.25 3.79998 544.261 3.79998 544.272 3.79998C544.282 3.79998 544.293 3.79998 544.304 3.79998C544.314 3.79998 544.325 3.79998 544.336 3.79998C544.347 3.79998 544.357 3.79998 544.368 3.79998C544.379 3.79998 544.389 3.79998 544.4 3.79998C544.411 3.79998 544.421 3.79998 544.432 3.79998C544.443 3.79998 544.453 3.79998 544.464 3.79998C544.475 3.79998 544.485 3.79998 544.496 3.79998C544.507 3.79998 544.517 3.79998 544.528 3.79998C544.539 3.79998 544.549 3.79998 544.56 3.79998C544.57 3.79998 544.581 3.79998 544.592 3.79998C544.602 3.79998 544.613 3.79998 544.623 3.79998C544.634 3.79998 544.645 3.79998 544.655 3.79998C544.666 3.79998 544.676 3.79998 544.687 3.79998C544.698 3.79998 544.708 3.79998 544.719 3.79998C544.729 3.79998 544.74 3.79998 544.751 3.79998C544.761 3.79998 544.772 3.79998 544.782 3.79998C544.793 3.79998 544.803 3.79998 544.814 3.79998C544.824 3.79998 544.835 3.79998 544.845 3.79998C544.856 3.79998 544.867 3.79998 544.877 3.79998C544.888 3.79998 544.898 3.79998 544.909 3.79998C544.919 3.79998 544.93 3.79998 544.94 3.79998C544.951 3.79998 544.961 3.79998 544.972 3.79998C544.982 3.79998 544.993 3.79998 545.003 3.79998C545.014 3.79998 545.024 3.79998 545.035 3.79998C545.045 3.79998 545.055 3.79998 545.066 3.79998C545.076 3.79998 545.087 3.79998 545.097 3.79998C545.108 3.79998 545.118 3.79998 545.129 3.79998C545.139 3.79998 545.15 3.79998 545.16 3.79998C545.17 3.79998 545.181 3.79998 545.191 3.79998C545.202 3.79998 545.212 3.79998 545.223 3.79998C545.233 3.79998 545.243 3.79998 545.254 3.79998C545.264 3.79998 545.275 3.79998 545.285 3.79998C545.295 3.79998 545.306 3.79998 545.316 3.79998C545.326 3.79998 545.337 3.79998 545.347 3.79998C545.358 3.79998 545.368 3.79998 545.378 3.79998C545.389 3.79998 545.399 3.79998 545.409 3.79998C545.42 3.79998 545.43 3.79998 545.44 3.79998C545.451 3.79998 545.461 3.79998 545.471 3.79998C545.482 3.79998 545.492 3.79998 545.502 3.79998C545.513 3.79998 545.523 3.79998 545.533 3.79998C545.544 3.79998 545.554 3.79998 545.564 3.79998C545.575 3.79998 545.585 3.79998 545.595 3.79998C545.605 3.79998 545.616 3.79998 545.626 3.79998C545.636 3.79998 545.647 3.79998 545.657 3.79998C545.667 3.79998 545.677 3.79998 545.688 3.79998C545.698 3.79998 545.708 3.79998 545.718 3.79998C545.729 3.79998 545.739 3.79998 545.749 3.79998C545.759 3.79998 545.77 3.79998 545.78 3.79998C545.79 3.79998 545.8 3.79998 545.811 3.79998C545.821 3.79998 545.831 3.79998 545.841 3.79998C545.851 3.79998 545.862 3.79998 545.872 3.79998C545.882 3.79998 545.892 3.79998 545.902 3.79998C545.913 3.79998 545.923 3.79998 545.933 3.79998C545.943 3.79998 545.953 3.79998 545.963 3.79998C545.974 3.79998 545.984 3.79998 545.994 3.79998C546.004 3.79998 546.014 3.79998 546.024 3.79998C546.035 3.79998 546.045 3.79998 546.055 3.79998C546.065 3.79998 546.075 3.79998 546.085 3.79998C546.095 3.79998 546.105 3.79998 546.116 3.79998C546.126 3.79998 546.136 3.79998 546.146 3.79998C546.156 3.79998 546.166 3.79998 546.176 3.79998C546.186 3.79998 546.196 3.79998 546.206 3.79998C546.217 3.79998 546.227 3.79998 546.237 3.79998C546.247 3.79998 546.257 3.79998 546.267 3.79998C546.277 3.79998 546.287 3.79998 546.297 3.79998C546.307 3.79998 546.317 3.79998 546.327 3.79998C546.337 3.79998 546.347 3.79998 546.357 3.79998C546.367 3.79998 546.377 3.79998 546.388 3.79998C546.398 3.79998 546.408 3.79998 546.418 3.79998C546.428 3.79998 546.438 3.79998 546.448 3.79998C546.458 3.79998 546.468 3.79998 546.478 3.79998C546.488 3.79998 546.498 3.79998 546.508 3.79998C546.518 3.79998 546.528 3.79998 546.538 3.79998C546.547 3.79998 546.557 3.79998 546.567 3.79998C546.577 3.79998 546.587 3.79998 546.597 3.79998C546.607 3.79998 546.617 3.79998 546.627 3.79998C546.637 3.79998 546.647 3.79998 546.657 3.79998C546.667 3.79998 546.677 3.79998 546.687 3.79998C546.697 3.79998 546.707 3.79998 546.717 3.79998C546.726 3.79998 546.736 3.79998 546.746 3.79998C546.756 3.79998 546.766 3.79998 546.776 3.79998C546.786 3.79998 546.796 3.79998 546.806 3.79998C546.815 3.79998 546.825 3.79998 546.835 3.79998C546.845 3.79998 546.855 3.79998 546.865 3.79998C546.875 3.79998 546.885 3.79998 546.894 3.79998C546.904 3.79998 546.914 3.79998 546.924 3.79998C546.934 3.79998 546.944 3.79998 546.953 3.79998C546.963 3.79998 546.973 3.79998 546.983 3.79998C546.993 3.79998 547.003 3.79998 547.012 3.79998C547.022 3.79998 547.032 3.79998 547.042 3.79998C547.052 3.79998 547.061 3.79998 547.071 3.79998C547.081 3.79998 547.091 3.79998 547.101 3.79998C547.11 3.79998 547.12 3.79998 547.13 3.79998C547.14 3.79998 547.149 3.79998 547.159 3.79998C547.169 3.79998 547.179 3.79998 547.188 3.79998C547.198 3.79998 547.208 3.79998 547.218 3.79998C547.227 3.79998 547.237 3.79998 547.247 3.79998C547.257 3.79998 547.266 3.79998 547.276 3.79998C547.286 3.79998 547.296 3.79998 547.305 3.79998C547.315 3.79998 547.325 3.79998 547.334 3.79998C547.344 3.79998 547.354 3.79998 547.363 3.79998C547.373 3.79998 547.383 3.79998 547.393 3.79998C547.402 3.79998 547.412 3.79998 547.422 3.79998C547.431 3.79998 547.441 3.79998 547.451 3.79998C547.46 3.79998 547.47 3.79998 547.48 3.79998C547.489 3.79998 547.499 3.79998 547.508 3.79998C547.518 3.79998 547.528 3.79998 547.537 3.79998C547.547 3.79998 547.557 3.79998 547.566 3.79998C547.576 3.79998 547.585 3.79998 547.595 3.79998C547.605 3.79998 547.614 3.79998 547.624 3.79998C547.633 3.79998 547.643 3.79998 547.653 3.79998C547.662 3.79998 547.672 3.79998 547.681 3.79998C547.691 3.79998 547.701 3.79998 547.71 3.79998C547.72 3.79998 547.729 3.79998 547.739 3.79998C547.748 3.79998 547.758 3.79998 547.767 3.79998C547.777 3.79998 547.787 3.79998 547.796 3.79998C547.806 3.79998 547.815 3.79998 547.825 3.79998C547.834 3.79998 547.844 3.79998 547.853 3.79998C547.863 3.79998 547.872 3.79998 547.882 3.79998C547.891 3.79998 547.901 3.79998 547.91 3.79998C547.92 3.79998 547.929 3.79998 547.939 3.79998C547.948 3.79998 547.958 3.79998 547.967 3.79998C547.977 3.79998 547.986 3.79998 547.996 3.79998C548.005 3.79998 548.015 3.79998 548.024 3.79998C548.033 3.79998 548.043 3.79998 548.052 3.79998C548.062 3.79998 548.071 3.79998 548.081 3.79998C548.09 3.79998 548.1 3.79998 548.109 3.79998C548.118 3.79998 548.128 3.79998 548.137 3.79998C548.147 3.79998 548.156 3.79998 548.166 3.79998C548.175 3.79998 548.184 3.79998 548.194 3.79998C548.203 3.79998 548.212 3.79998 548.222 3.79998C548.231 3.79998 548.241 3.79998 548.25 3.79998V1.79998C548.241 1.79998 548.231 1.79998 548.222 1.79998C548.212 1.79998 548.203 1.79998 548.194 1.79998C548.184 1.79998 548.175 1.79998 548.166 1.79998C548.156 1.79998 548.147 1.79998 548.137 1.79998C548.128 1.79998 548.118 1.79998 548.109 1.79998C548.1 1.79998 548.09 1.79998 548.081 1.79998C548.071 1.79998 548.062 1.79998 548.052 1.79998C548.043 1.79998 548.033 1.79998 548.024 1.79998C548.015 1.79998 548.005 1.79998 547.996 1.79998C547.986 1.79998 547.977 1.79998 547.967 1.79998C547.958 1.79998 547.948 1.79998 547.939 1.79998C547.929 1.79998 547.92 1.79998 547.91 1.79998C547.901 1.79998 547.891 1.79998 547.882 1.79998C547.872 1.79998 547.863 1.79998 547.853 1.79998C547.844 1.79998 547.834 1.79998 547.825 1.79998C547.815 1.79998 547.806 1.79998 547.796 1.79998C547.787 1.79998 547.777 1.79998 547.767 1.79998C547.758 1.79998 547.748 1.79998 547.739 1.79998C547.729 1.79998 547.72 1.79998 547.71 1.79998C547.701 1.79998 547.691 1.79998 547.681 1.79998C547.672 1.79998 547.662 1.79998 547.653 1.79998C547.643 1.79998 547.633 1.79998 547.624 1.79998C547.614 1.79998 547.605 1.79998 547.595 1.79998C547.585 1.79998 547.576 1.79998 547.566 1.79998C547.557 1.79998 547.547 1.79998 547.537 1.79998C547.528 1.79998 547.518 1.79998 547.508 1.79998C547.499 1.79998 547.489 1.79998 547.48 1.79998C547.47 1.79998 547.46 1.79998 547.451 1.79998C547.441 1.79998 547.431 1.79998 547.422 1.79998C547.412 1.79998 547.402 1.79998 547.393 1.79998C547.383 1.79998 547.373 1.79998 547.363 1.79998C547.354 1.79998 547.344 1.79998 547.334 1.79998C547.325 1.79998 547.315 1.79998 547.305 1.79998C547.296 1.79998 547.286 1.79998 547.276 1.79998C547.266 1.79998 547.257 1.79998 547.247 1.79998C547.237 1.79998 547.227 1.79998 547.218 1.79998C547.208 1.79998 547.198 1.79998 547.188 1.79998C547.179 1.79998 547.169 1.79998 547.159 1.79998C547.149 1.79998 547.14 1.79998 547.13 1.79998C547.12 1.79998 547.11 1.79998 547.101 1.79998C547.091 1.79998 547.081 1.79998 547.071 1.79998C547.061 1.79998 547.052 1.79998 547.042 1.79998C547.032 1.79998 547.022 1.79998 547.012 1.79998C547.003 1.79998 546.993 1.79998 546.983 1.79998C546.973 1.79998 546.963 1.79998 546.953 1.79998C546.944 1.79998 546.934 1.79998 546.924 1.79998C546.914 1.79998 546.904 1.79998 546.894 1.79998C546.885 1.79998 546.875 1.79998 546.865 1.79998C546.855 1.79998 546.845 1.79998 546.835 1.79998C546.825 1.79998 546.815 1.79998 546.806 1.79998C546.796 1.79998 546.786 1.79998 546.776 1.79998C546.766 1.79998 546.756 1.79998 546.746 1.79998C546.736 1.79998 546.726 1.79998 546.717 1.79998C546.707 1.79998 546.697 1.79998 546.687 1.79998C546.677 1.79998 546.667 1.79998 546.657 1.79998C546.647 1.79998 546.637 1.79998 546.627 1.79998C546.617 1.79998 546.607 1.79998 546.597 1.79998C546.587 1.79998 546.577 1.79998 546.567 1.79998C546.557 1.79998 546.547 1.79998 546.538 1.79998C546.528 1.79998 546.518 1.79998 546.508 1.79998C546.498 1.79998 546.488 1.79998 546.478 1.79998C546.468 1.79998 546.458 1.79998 546.448 1.79998C546.438 1.79998 546.428 1.79998 546.418 1.79998C546.408 1.79998 546.398 1.79998 546.388 1.79998C546.377 1.79998 546.367 1.79998 546.357 1.79998C546.347 1.79998 546.337 1.79998 546.327 1.79998C546.317 1.79998 546.307 1.79998 546.297 1.79998C546.287 1.79998 546.277 1.79998 546.267 1.79998C546.257 1.79998 546.247 1.79998 546.237 1.79998C546.227 1.79998 546.217 1.79998 546.206 1.79998C546.196 1.79998 546.186 1.79998 546.176 1.79998C546.166 1.79998 546.156 1.79998 546.146 1.79998C546.136 1.79998 546.126 1.79998 546.116 1.79998C546.105 1.79998 546.095 1.79998 546.085 1.79998C546.075 1.79998 546.065 1.79998 546.055 1.79998C546.045 1.79998 546.035 1.79998 546.024 1.79998C546.014 1.79998 546.004 1.79998 545.994 1.79998C545.984 1.79998 545.974 1.79998 545.963 1.79998C545.953 1.79998 545.943 1.79998 545.933 1.79998C545.923 1.79998 545.913 1.79998 545.902 1.79998C545.892 1.79998 545.882 1.79998 545.872 1.79998C545.862 1.79998 545.851 1.79998 545.841 1.79998C545.831 1.79998 545.821 1.79998 545.811 1.79998C545.8 1.79998 545.79 1.79998 545.78 1.79998C545.77 1.79998 545.759 1.79998 545.749 1.79998C545.739 1.79998 545.729 1.79998 545.718 1.79998C545.708 1.79998 545.698 1.79998 545.688 1.79998C545.677 1.79998 545.667 1.79998 545.657 1.79998C545.647 1.79998 545.636 1.79998 545.626 1.79998C545.616 1.79998 545.605 1.79998 545.595 1.79998C545.585 1.79998 545.575 1.79998 545.564 1.79998C545.554 1.79998 545.544 1.79998 545.533 1.79998C545.523 1.79998 545.513 1.79998 545.502 1.79998C545.492 1.79998 545.482 1.79998 545.471 1.79998C545.461 1.79998 545.451 1.79998 545.44 1.79998C545.43 1.79998 545.42 1.79998 545.409 1.79998C545.399 1.79998 545.389 1.79998 545.378 1.79998C545.368 1.79998 545.358 1.79998 545.347 1.79998C545.337 1.79998 545.326 1.79998 545.316 1.79998C545.306 1.79998 545.295 1.79998 545.285 1.79998C545.275 1.79998 545.264 1.79998 545.254 1.79998C545.243 1.79998 545.233 1.79998 545.223 1.79998C545.212 1.79998 545.202 1.79998 545.191 1.79998C545.181 1.79998 545.17 1.79998 545.16 1.79998C545.15 1.79998 545.139 1.79998 545.129 1.79998C545.118 1.79998 545.108 1.79998 545.097 1.79998C545.087 1.79998 545.076 1.79998 545.066 1.79998C545.055 1.79998 545.045 1.79998 545.035 1.79998C545.024 1.79998 545.014 1.79998 545.003 1.79998C544.993 1.79998 544.982 1.79998 544.972 1.79998C544.961 1.79998 544.951 1.79998 544.94 1.79998C544.93 1.79998 544.919 1.79998 544.909 1.79998C544.898 1.79998 544.888 1.79998 544.877 1.79998C544.867 1.79998 544.856 1.79998 544.845 1.79998C544.835 1.79998 544.824 1.79998 544.814 1.79998C544.803 1.79998 544.793 1.79998 544.782 1.79998C544.772 1.79998 544.761 1.79998 544.751 1.79998C544.74 1.79998 544.729 1.79998 544.719 1.79998C544.708 1.79998 544.698 1.79998 544.687 1.79998C544.676 1.79998 544.666 1.79998 544.655 1.79998C544.645 1.79998 544.634 1.79998 544.623 1.79998C544.613 1.79998 544.602 1.79998 544.592 1.79998C544.581 1.79998 544.57 1.79998 544.56 1.79998C544.549 1.79998 544.539 1.79998 544.528 1.79998C544.517 1.79998 544.507 1.79998 544.496 1.79998C544.485 1.79998 544.475 1.79998 544.464 1.79998C544.453 1.79998 544.443 1.79998 544.432 1.79998C544.421 1.79998 544.411 1.79998 544.4 1.79998C544.389 1.79998 544.379 1.79998 544.368 1.79998C544.357 1.79998 544.347 1.79998 544.336 1.79998C544.325 1.79998 544.314 1.79998 544.304 1.79998C544.293 1.79998 544.282 1.79998 544.272 1.79998C544.261 1.79998 544.25 1.79998 544.239 1.79998C544.229 1.79998 544.218 1.79998 544.207 1.79998C544.197 1.79998 544.186 1.79998 544.175 1.79998C544.164 1.79998 544.154 1.79998 544.143 1.79998C544.132 1.79998 544.121 1.79998 544.11 1.79998C544.1 1.79998 544.089 1.79998 544.078 1.79998C544.067 1.79998 544.057 1.79998 544.046 1.79998C544.035 1.79998 544.024 1.79998 544.013 1.79998C544.003 1.79998 543.992 1.79998 543.981 1.79998C543.97 1.79998 543.959 1.79998 543.949 1.79998C543.938 1.79998 543.927 1.79998 543.916 1.79998C543.905 1.79998 543.894 1.79998 543.884 1.79998C543.873 1.79998 543.862 1.79998 543.851 1.79998C543.84 1.79998 543.829 1.79998 543.819 1.79998C543.808 1.79998 543.797 1.79998 543.786 1.79998C543.775 1.79998 543.764 1.79998 543.753 1.79998C543.742 1.79998 543.732 1.79998 543.721 1.79998C543.71 1.79998 543.699 1.79998 543.688 1.79998C543.677 1.79998 543.666 1.79998 543.655 1.79998C543.644 1.79998 543.633 1.79998 543.622 1.79998C543.612 1.79998 543.601 1.79998 543.59 1.79998C543.579 1.79998 543.568 1.79998 543.557 1.79998C543.546 1.79998 543.535 1.79998 543.524 1.79998C543.513 1.79998 543.502 1.79998 543.491 1.79998C543.48 1.79998 543.469 1.79998 543.458 1.79998C543.447 1.79998 543.436 1.79998 543.425 1.79998C543.414 1.79998 543.403 1.79998 543.392 1.79998C543.381 1.79998 543.37 1.79998 543.359 1.79998C543.348 1.79998 543.337 1.79998 543.326 1.79998C543.315 1.79998 543.304 1.79998 543.293 1.79998C543.282 1.79998 543.271 1.79998 543.26 1.79998C543.249 1.79998 543.238 1.79998 543.227 1.79998C543.216 1.79998 543.205 1.79998 543.194 1.79998C543.183 1.79998 543.172 1.79998 543.161 1.79998C543.15 1.79998 543.139 1.79998 543.128 1.79998C543.117 1.79998 543.105 1.79998 543.094 1.79998C543.083 1.79998 543.072 1.79998 543.061 1.79998C543.05 1.79998 543.039 1.79998 543.028 1.79998C543.017 1.79998 543.006 1.79998 542.994 1.79998C542.983 1.79998 542.972 1.79998 542.961 1.79998C542.95 1.79998 542.939 1.79998 542.928 1.79998C542.917 1.79998 542.905 1.79998 542.894 1.79998C542.883 1.79998 542.872 1.79998 542.861 1.79998C542.85 1.79998 542.839 1.79998 542.827 1.79998C542.816 1.79998 542.805 1.79998 542.794 1.79998C542.783 1.79998 542.771 1.79998 542.76 1.79998C542.749 1.79998 542.738 1.79998 542.727 1.79998C542.716 1.79998 542.704 1.79998 542.693 1.79998C542.682 1.79998 542.671 1.79998 542.659 1.79998C542.648 1.79998 542.637 1.79998 542.626 1.79998C542.615 1.79998 542.603 1.79998 542.592 1.79998C542.581 1.79998 542.57 1.79998 542.558 1.79998C542.547 1.79998 542.536 1.79998 542.525 1.79998C542.513 1.79998 542.502 1.79998 542.491 1.79998C542.48 1.79998 542.468 1.79998 542.457 1.79998C542.446 1.79998 542.434 1.79998 542.423 1.79998C542.412 1.79998 542.401 1.79998 542.389 1.79998C542.378 1.79998 542.367 1.79998 542.355 1.79998C542.344 1.79998 542.333 1.79998 542.321 1.79998C542.31 1.79998 542.299 1.79998 542.288 1.79998C542.276 1.79998 542.265 1.79998 542.254 1.79998C542.242 1.79998 542.231 1.79998 542.219 1.79998C542.208 1.79998 542.197 1.79998 542.185 1.79998C542.174 1.79998 542.163 1.79998 542.151 1.79998C542.14 1.79998 542.129 1.79998 542.117 1.79998C542.106 1.79998 542.094 1.79998 542.083 1.79998C542.072 1.79998 542.06 1.79998 542.049 1.79998C542.037 1.79998 542.026 1.79998 542.015 1.79998C542.003 1.79998 541.992 1.79998 541.98 1.79998C541.969 1.79998 541.958 1.79998 541.946 1.79998C541.935 1.79998 541.923 1.79998 541.912 1.79998C541.9 1.79998 541.889 1.79998 541.878 1.79998C541.866 1.79998 541.855 1.79998 541.843 1.79998C541.832 1.79998 541.82 1.79998 541.809 1.79998C541.797 1.79998 541.786 1.79998 541.774 1.79998C541.763 1.79998 541.751 1.79998 541.74 1.79998C541.728 1.79998 541.717 1.79998 541.705 1.79998C541.694 1.79998 541.682 1.79998 541.671 1.79998C541.659 1.79998 541.648 1.79998 541.636 1.79998C541.625 1.79998 541.613 1.79998 541.602 1.79998C541.59 1.79998 541.579 1.79998 541.567 1.79998C541.556 1.79998 541.544 1.79998 541.532 1.79998C541.521 1.79998 541.509 1.79998 541.498 1.79998C541.486 1.79998 541.475 1.79998 541.463 1.79998C541.452 1.79998 541.44 1.79998 541.428 1.79998C541.417 1.79998 541.405 1.79998 541.394 1.79998C541.382 1.79998 541.37 1.79998 541.359 1.79998C541.347 1.79998 541.336 1.79998 541.324 1.79998C541.312 1.79998 541.301 1.79998 541.289 1.79998C541.278 1.79998 541.266 1.79998 541.254 1.79998C541.243 1.79998 541.231 1.79998 541.219 1.79998C541.208 1.79998 541.196 1.79998 541.184 1.79998C541.173 1.79998 541.161 1.79998 541.149 1.79998C541.138 1.79998 541.126 1.79998 541.114 1.79998C541.103 1.79998 541.091 1.79998 541.079 1.79998C541.068 1.79998 541.056 1.79998 541.044 1.79998C541.033 1.79998 541.021 1.79998 541.009 1.79998C540.997 1.79998 540.986 1.79998 540.974 1.79998C540.962 1.79998 540.951 1.79998 540.939 1.79998C540.927 1.79998 540.915 1.79998 540.904 1.79998C540.892 1.79998 540.88 1.79998 540.869 1.79998C540.857 1.79998 540.845 1.79998 540.833 1.79998C540.821 1.79998 540.81 1.79998 540.798 1.79998C540.786 1.79998 540.774 1.79998 540.763 1.79998C540.751 1.79998 540.739 1.79998 540.727 1.79998C540.716 1.79998 540.704 1.79998 540.692 1.79998C540.68 1.79998 540.668 1.79998 540.657 1.79998C540.645 1.79998 540.633 1.79998 540.621 1.79998C540.609 1.79998 540.597 1.79998 540.586 1.79998C540.574 1.79998 540.562 1.79998 540.55 1.79998C540.538 1.79998 540.526 1.79998 540.515 1.79998C540.503 1.79998 540.491 1.79998 540.479 1.79998C540.467 1.79998 540.455 1.79998 540.443 1.79998C540.432 1.79998 540.42 1.79998 540.408 1.79998C540.396 1.79998 540.384 1.79998 540.372 1.79998C540.36 1.79998 540.348 1.79998 540.337 1.79998C540.325 1.79998 540.313 1.79998 540.301 1.79998C540.289 1.79998 540.277 1.79998 540.265 1.79998C540.253 1.79998 540.241 1.79998 540.229 1.79998C540.217 1.79998 540.205 1.79998 540.194 1.79998C540.182 1.79998 540.17 1.79998 540.158 1.79998C540.146 1.79998 540.134 1.79998 540.122 1.79998C540.11 1.79998 540.098 1.79998 540.086 1.79998C540.074 1.79998 540.062 1.79998 540.05 1.79998C540.038 1.79998 540.026 1.79998 540.014 1.79998C540.002 1.79998 539.99 1.79998 539.978 1.79998C539.966 1.79998 539.954 1.79998 539.942 1.79998C539.93 1.79998 539.918 1.79998 539.906 1.79998C539.894 1.79998 539.882 1.79998 539.87 1.79998C539.858 1.79998 539.846 1.79998 539.834 1.79998C539.822 1.79998 539.81 1.79998 539.798 1.79998C539.786 1.79998 539.774 1.79998 539.762 1.79998C539.749 1.79998 539.737 1.79998 539.725 1.79998C539.713 1.79998 539.701 1.79998 539.689 1.79998C539.677 1.79998 539.665 1.79998 539.653 1.79998C539.641 1.79998 539.629 1.79998 539.617 1.79998C539.604 1.79998 539.592 1.79998 539.58 1.79998C539.568 1.79998 539.556 1.79998 539.544 1.79998C539.532 1.79998 539.52 1.79998 539.508 1.79998C539.495 1.79998 539.483 1.79998 539.471 1.79998C539.459 1.79998 539.447 1.79998 539.435 1.79998C539.423 1.79998 539.41 1.79998 539.398 1.79998C539.386 1.79998 539.374 1.79998 539.362 1.79998C539.35 1.79998 539.337 1.79998 539.325 1.79998C539.313 1.79998 539.301 1.79998 539.289 1.79998C539.276 1.79998 539.264 1.79998 539.252 1.79998C539.24 1.79998 539.228 1.79998 539.215 1.79998C539.203 1.79998 539.191 1.79998 539.179 1.79998C539.166 1.79998 539.154 1.79998 539.142 1.79998C539.13 1.79998 539.118 1.79998 539.105 1.79998C539.093 1.79998 539.081 1.79998 539.069 1.79998C539.056 1.79998 539.044 1.79998 539.032 1.79998C539.02 1.79998 539.007 1.79998 538.995 1.79998C538.983 1.79998 538.97 1.79998 538.958 1.79998C538.946 1.79998 538.934 1.79998 538.921 1.79998C538.909 1.79998 538.897 1.79998 538.884 1.79998C538.872 1.79998 538.86 1.79998 538.847 1.79998C538.835 1.79998 538.823 1.79998 538.81 1.79998C538.798 1.79998 538.786 1.79998 538.774 1.79998C538.761 1.79998 538.749 1.79998 538.736 1.79998C538.724 1.79998 538.712 1.79998 538.699 1.79998C538.687 1.79998 538.675 1.79998 538.662 1.79998C538.65 1.79998 538.638 1.79998 538.625 1.79998C538.613 1.79998 538.6 1.79998 538.588 1.79998C538.576 1.79998 538.563 1.79998 538.551 1.79998C538.539 1.79998 538.526 1.79998 538.514 1.79998C538.501 1.79998 538.489 1.79998 538.476 1.79998C538.464 1.79998 538.452 1.79998 538.439 1.79998C538.427 1.79998 538.414 1.79998 538.402 1.79998C538.389 1.79998 538.377 1.79998 538.365 1.79998C538.352 1.79998 538.34 1.79998 538.327 1.79998C538.315 1.79998 538.302 1.79998 538.29 1.79998C538.277 1.79998 538.265 1.79998 538.252 1.79998C538.24 1.79998 538.227 1.79998 538.215 1.79998C538.203 1.79998 538.19 1.79998 538.178 1.79998C538.165 1.79998 538.153 1.79998 538.14 1.79998C538.127 1.79998 538.115 1.79998 538.102 1.79998C538.09 1.79998 538.077 1.79998 538.065 1.79998C538.052 1.79998 538.04 1.79998 538.027 1.79998C538.015 1.79998 538.002 1.79998 537.99 1.79998C537.977 1.79998 537.965 1.79998 537.952 1.79998C537.939 1.79998 537.927 1.79998 537.914 1.79998C537.902 1.79998 537.889 1.79998 537.877 1.79998C537.864 1.79998 537.851 1.79998 537.839 1.79998C537.826 1.79998 537.814 1.79998 537.801 1.79998C537.788 1.79998 537.776 1.79998 537.763 1.79998C537.751 1.79998 537.738 1.79998 537.725 1.79998C537.713 1.79998 537.7 1.79998 537.688 1.79998C537.675 1.79998 537.662 1.79998 537.65 1.79998C537.637 1.79998 537.624 1.79998 537.612 1.79998C537.599 1.79998 537.586 1.79998 537.574 1.79998C537.561 1.79998 537.548 1.79998 537.536 1.79998C537.523 1.79998 537.51 1.79998 537.498 1.79998C537.485 1.79998 537.472 1.79998 537.46 1.79998C537.447 1.79998 537.434 1.79998 537.422 1.79998C537.409 1.79998 537.396 1.79998 537.383 1.79998C537.371 1.79998 537.358 1.79998 537.345 1.79998C537.333 1.79998 537.32 1.79998 537.307 1.79998C537.294 1.79998 537.282 1.79998 537.269 1.79998C537.256 1.79998 537.243 1.79998 537.231 1.79998C537.218 1.79998 537.205 1.79998 537.192 1.79998C537.18 1.79998 537.167 1.79998 537.154 1.79998C537.141 1.79998 537.129 1.79998 537.116 1.79998C537.103 1.79998 537.09 1.79998 537.077 1.79998C537.065 1.79998 537.052 1.79998 537.039 1.79998C537.026 1.79998 537.013 1.79998 537.001 1.79998C536.988 1.79998 536.975 1.79998 536.962 1.79998C536.949 1.79998 536.936 1.79998 536.924 1.79998C536.911 1.79998 536.898 1.79998 536.885 1.79998C536.872 1.79998 536.859 1.79998 536.847 1.79998C536.834 1.79998 536.821 1.79998 536.808 1.79998C536.795 1.79998 536.782 1.79998 536.769 1.79998C536.756 1.79998 536.744 1.79998 536.731 1.79998C536.718 1.79998 536.705 1.79998 536.692 1.79998C536.679 1.79998 536.666 1.79998 536.653 1.79998C536.64 1.79998 536.628 1.79998 536.615 1.79998C536.602 1.79998 536.589 1.79998 536.576 1.79998C536.563 1.79998 536.55 1.79998 536.537 1.79998C536.524 1.79998 536.511 1.79998 536.498 1.79998C536.485 1.79998 536.472 1.79998 536.459 1.79998C536.446 1.79998 536.433 1.79998 536.421 1.79998C536.408 1.79998 536.395 1.79998 536.382 1.79998C536.369 1.79998 536.356 1.79998 536.343 1.79998C536.33 1.79998 536.317 1.79998 536.304 1.79998C536.291 1.79998 536.278 1.79998 536.265 1.79998C536.252 1.79998 536.239 1.79998 536.226 1.79998C536.213 1.79998 536.2 1.79998 536.187 1.79998C536.174 1.79998 536.161 1.79998 536.147 1.79998C536.134 1.79998 536.121 1.79998 536.108 1.79998C536.095 1.79998 536.082 1.79998 536.069 1.79998C536.056 1.79998 536.043 1.79998 536.03 1.79998C536.017 1.79998 536.004 1.79998 535.991 1.79998C535.978 1.79998 535.965 1.79998 535.952 1.79998C535.938 1.79998 535.925 1.79998 535.912 1.79998C535.899 1.79998 535.886 1.79998 535.873 1.79998C535.86 1.79998 535.847 1.79998 535.834 1.79998C535.82 1.79998 535.807 1.79998 535.794 1.79998C535.781 1.79998 535.768 1.79998 535.755 1.79998C535.742 1.79998 535.729 1.79998 535.715 1.79998C535.702 1.79998 535.689 1.79998 535.676 1.79998C535.663 1.79998 535.65 1.79998 535.636 1.79998C535.623 1.79998 535.61 1.79998 535.597 1.79998C535.584 1.79998 535.571 1.79998 535.557 1.79998C535.544 1.79998 535.531 1.79998 535.518 1.79998C535.505 1.79998 535.491 1.79998 535.478 1.79998C535.465 1.79998 535.452 1.79998 535.439 1.79998C535.425 1.79998 535.412 1.79998 535.399 1.79998C535.386 1.79998 535.372 1.79998 535.359 1.79998C535.346 1.79998 535.333 1.79998 535.319 1.79998C535.306 1.79998 535.293 1.79998 535.28 1.79998C535.266 1.79998 535.253 1.79998 535.24 1.79998C535.227 1.79998 535.213 1.79998 535.2 1.79998C535.187 1.79998 535.173 1.79998 535.16 1.79998C535.147 1.79998 535.134 1.79998 535.12 1.79998C535.107 1.79998 535.094 1.79998 535.08 1.79998C535.067 1.79998 535.054 1.79998 535.04 1.79998C535.027 1.79998 535.014 1.79998 535 1.79998C534.987 1.79998 534.974 1.79998 534.96 1.79998C534.947 1.79998 534.934 1.79998 534.92 1.79998C534.907 1.79998 534.894 1.79998 534.88 1.79998C534.867 1.79998 534.854 1.79998 534.84 1.79998C534.827 1.79998 534.813 1.79998 534.8 1.79998C534.787 1.79998 534.773 1.79998 534.76 1.79998C534.746 1.79998 534.733 1.79998 534.72 1.79998C534.706 1.79998 534.693 1.79998 534.679 1.79998C534.666 1.79998 534.653 1.79998 534.639 1.79998C534.626 1.79998 534.612 1.79998 534.599 1.79998C534.585 1.79998 534.572 1.79998 534.559 1.79998C534.545 1.79998 534.532 1.79998 534.518 1.79998C534.505 1.79998 534.491 1.79998 534.478 1.79998C534.464 1.79998 534.451 1.79998 534.437 1.79998C534.424 1.79998 534.411 1.79998 534.397 1.79998C534.384 1.79998 534.37 1.79998 534.357 1.79998C534.343 1.79998 534.33 1.79998 534.316 1.79998C534.303 1.79998 534.289 1.79998 534.276 1.79998C534.262 1.79998 534.248 1.79998 534.235 1.79998C534.221 1.79998 534.208 1.79998 534.194 1.79998C534.181 1.79998 534.167 1.79998 534.154 1.79998C534.14 1.79998 534.127 1.79998 534.113 1.79998C534.1 1.79998 534.086 1.79998 534.072 1.79998C534.059 1.79998 534.045 1.79998 534.032 1.79998C534.018 1.79998 534.005 1.79998 533.991 1.79998C533.977 1.79998 533.964 1.79998 533.95 1.79998C533.937 1.79998 533.923 1.79998 533.909 1.79998C533.896 1.79998 533.882 1.79998 533.869 1.79998C533.855 1.79998 533.841 1.79998 533.828 1.79998C533.814 1.79998 533.8 1.79998 533.787 1.79998C533.773 1.79998 533.76 1.79998 533.746 1.79998C533.732 1.79998 533.719 1.79998 533.705 1.79998C533.691 1.79998 533.678 1.79998 533.664 1.79998C533.65 1.79998 533.637 1.79998 533.623 1.79998C533.609 1.79998 533.596 1.79998 533.582 1.79998C533.568 1.79998 533.554 1.79998 533.541 1.79998C533.527 1.79998 533.513 1.79998 533.5 1.79998C533.486 1.79998 533.472 1.79998 533.459 1.79998C533.445 1.79998 533.431 1.79998 533.417 1.79998C533.404 1.79998 533.39 1.79998 533.376 1.79998C533.362 1.79998 533.349 1.79998 533.335 1.79998C533.321 1.79998 533.307 1.79998 533.294 1.79998C533.28 1.79998 533.266 1.79998 533.252 1.79998C533.239 1.79998 533.225 1.79998 533.211 1.79998C533.197 1.79998 533.183 1.79998 533.17 1.79998C533.156 1.79998 533.142 1.79998 533.128 1.79998C533.114 1.79998 533.101 1.79998 533.087 1.79998C533.073 1.79998 533.059 1.79998 533.045 1.79998C533.032 1.79998 533.018 1.79998 533.004 1.79998C532.99 1.79998 532.976 1.79998 532.962 1.79998C532.949 1.79998 532.935 1.79998 532.921 1.79998C532.907 1.79998 532.893 1.79998 532.879 1.79998C532.865 1.79998 532.852 1.79998 532.838 1.79998C532.824 1.79998 532.81 1.79998 532.796 1.79998C532.782 1.79998 532.768 1.79998 532.754 1.79998C532.741 1.79998 532.727 1.79998 532.713 1.79998C532.699 1.79998 532.685 1.79998 532.671 1.79998C532.657 1.79998 532.643 1.79998 532.629 1.79998C532.615 1.79998 532.601 1.79998 532.588 1.79998C532.574 1.79998 532.56 1.79998 532.546 1.79998C532.532 1.79998 532.518 1.79998 532.504 1.79998C532.49 1.79998 532.476 1.79998 532.462 1.79998C532.448 1.79998 532.434 1.79998 532.42 1.79998C532.406 1.79998 532.392 1.79998 532.378 1.79998C532.364 1.79998 532.35 1.79998 532.336 1.79998C532.322 1.79998 532.308 1.79998 532.294 1.79998C532.28 1.79998 532.266 1.79998 532.252 1.79998C532.238 1.79998 532.224 1.79998 532.21 1.79998C532.196 1.79998 532.182 1.79998 532.168 1.79998C532.154 1.79998 532.14 1.79998 532.126 1.79998C532.112 1.79998 532.098 1.79998 532.084 1.79998C532.07 1.79998 532.056 1.79998 532.042 1.79998C532.028 1.79998 532.013 1.79998 531.999 1.79998C531.985 1.79998 531.971 1.79998 531.957 1.79998C531.943 1.79998 531.929 1.79998 531.915 1.79998C531.901 1.79998 531.887 1.79998 531.873 1.79998C531.858 1.79998 531.844 1.79998 531.83 1.79998C531.816 1.79998 531.802 1.79998 531.788 1.79998C531.774 1.79998 531.76 1.79998 531.745 1.79998C531.731 1.79998 531.717 1.79998 531.703 1.79998C531.689 1.79998 531.675 1.79998 531.661 1.79998C531.646 1.79998 531.632 1.79998 531.618 1.79998C531.604 1.79998 531.59 1.79998 531.576 1.79998C531.561 1.79998 531.547 1.79998 531.533 1.79998C531.519 1.79998 531.505 1.79998 531.49 1.79998C531.476 1.79998 531.462 1.79998 531.448 1.79998C531.434 1.79998 531.419 1.79998 531.405 1.79998C531.391 1.79998 531.377 1.79998 531.363 1.79998C531.348 1.79998 531.334 1.79998 531.32 1.79998C531.306 1.79998 531.291 1.79998 531.277 1.79998C531.263 1.79998 531.249 1.79998 531.234 1.79998C531.22 1.79998 531.206 1.79998 531.192 1.79998C531.177 1.79998 531.163 1.79998 531.149 1.79998C531.134 1.79998 531.12 1.79998 531.106 1.79998C531.092 1.79998 531.077 1.79998 531.063 1.79998C531.049 1.79998 531.034 1.79998 531.02 1.79998C531.006 1.79998 530.992 1.79998 530.977 1.79998C530.963 1.79998 530.949 1.79998 530.934 1.79998C530.92 1.79998 530.906 1.79998 530.891 1.79998C530.877 1.79998 530.863 1.79998 530.848 1.79998C530.834 1.79998 530.819 1.79998 530.805 1.79998C530.791 1.79998 530.776 1.79998 530.762 1.79998C530.748 1.79998 530.733 1.79998 530.719 1.79998C530.705 1.79998 530.69 1.79998 530.676 1.79998C530.661 1.79998 530.647 1.79998 530.633 1.79998C530.618 1.79998 530.604 1.79998 530.589 1.79998C530.575 1.79998 530.561 1.79998 530.546 1.79998C530.532 1.79998 530.517 1.79998 530.503 1.79998C530.488 1.79998 530.474 1.79998 530.46 1.79998C530.445 1.79998 530.431 1.79998 530.416 1.79998C530.402 1.79998 530.387 1.79998 530.373 1.79998C530.358 1.79998 530.344 1.79998 530.329 1.79998C530.315 1.79998 530.3 1.79998 530.286 1.79998C530.272 1.79998 530.257 1.79998 530.243 1.79998C530.228 1.79998 530.214 1.79998 530.199 1.79998C530.185 1.79998 530.17 1.79998 530.156 1.79998C530.141 1.79998 530.126 1.79998 530.112 1.79998C530.097 1.79998 530.083 1.79998 530.068 1.79998C530.054 1.79998 530.039 1.79998 530.025 1.79998C530.01 1.79998 529.996 1.79998 529.981 1.79998C529.967 1.79998 529.952 1.79998 529.937 1.79998C529.923 1.79998 529.908 1.79998 529.894 1.79998C529.879 1.79998 529.865 1.79998 529.85 1.79998V3.79998ZM548.25 3.79998C557.06 3.79998 566.402 3.6665 576.277 3.39962L576.223 1.40035C566.364 1.6668 557.04 1.79998 548.25 1.79998V3.79998ZM576.277 3.39962C586.172 3.13221 595.404 2.4635 603.974 1.39227L603.726 -0.592288C595.229 0.46982 586.062 1.13444 576.223 1.40035L576.277 3.39962ZM603.023 -0.161511L595.423 11.0385L597.077 12.1615L604.677 0.961491L603.023 -0.161511ZM596.25 10.6C587.261 10.6 578.297 13.0533 569.371 17.9221L570.329 19.6779C579.003 14.9467 587.639 12.6 596.25 12.6V10.6ZM569.329 17.9467C565.575 20.2404 561.229 24.5526 556.291 30.7786C551.34 37.0222 545.742 45.2594 539.497 55.4785C527.006 75.9178 511.89 104.35 494.151 140.762L495.949 141.638C513.677 105.25 528.761 76.8822 541.203 56.5214C547.425 46.3405 552.976 38.1778 557.859 32.0213C562.755 25.8474 566.925 21.7596 570.371 19.6533L569.329 17.9467ZM494.151 140.763C461.089 208.752 441.045 255.903 434.083 282.144L436.017 282.656C442.921 256.631 462.878 209.648 495.949 141.637L494.151 140.763ZM434.649 281.484L428.249 284.284L429.051 286.116L435.451 283.316L434.649 281.484Z" fill="white" mask="url(#path-1-outside-1_206_15)"/>
</svg>
