<svg width="124" height="60" viewBox="0 0 124 60" fill="none" xmlns="http://www.w3.org/2000/svg">
<path d="M54.4772 56.902C51.1425 56.902 48.2178 56.3007 45.7032 55.098C43.2432 53.8407 41.2478 51.9547 39.7172 49.44C37.3665 45.5587 35.4805 42.4973 34.0592 40.256C32.6925 37.96 31.6265 36.2107 30.8612 35.008C30.0958 33.8053 29.4672 32.9033 28.9752 32.302C28.4832 31.646 27.9638 31.072 27.4172 30.58C26.5425 30.6893 25.6952 30.7713 24.8752 30.826C24.1098 30.8807 23.3445 30.908 22.5792 30.908L23.8912 28.694C28.3738 28.694 32.0638 27.546 34.9612 25.25C37.8585 22.954 39.4712 19.6467 39.7992 15.328C39.9632 11.884 39.0065 9.20533 36.9292 7.292C34.9065 5.37867 32.3372 4.422 29.2212 4.422C27.0345 4.422 25.2852 4.504 23.9732 4.668C22.7158 4.832 21.9505 5.46066 21.6772 6.554C21.4038 8.194 21.1305 10.3807 20.8572 13.114C20.5838 15.8473 20.3105 18.854 20.0372 22.134C19.7638 25.414 19.5178 28.694 19.2992 31.974C19.0805 35.1993 18.8892 38.1513 18.7252 40.83C18.6158 43.5087 18.5612 45.6133 18.5612 47.144C18.5612 49.3853 18.8072 50.998 19.2992 51.982C19.8458 52.966 20.8025 53.5673 22.1692 53.786C23.5905 54.0047 25.5858 54.114 28.1552 54.114L26.6792 56.574C25.0938 56.3007 23.3992 56.1093 21.5952 56C19.7912 55.836 17.9052 55.754 15.9372 55.754C14.5158 55.754 12.4658 55.836 9.78717 56C7.16317 56.1093 3.93784 56.3007 0.111172 56.574L1.25917 54.196C1.69651 54.3053 2.13384 54.36 2.57117 54.36C3.50051 54.36 4.53917 54.2233 5.68717 53.95C6.88984 53.622 7.95584 53.1847 8.88517 52.638C9.81451 52.0367 10.3885 51.3533 10.6072 50.588C10.9352 49.3853 11.2632 47.5267 11.5912 45.012C11.9192 42.4973 12.1925 39.6547 12.4112 36.484C12.6845 33.2587 12.9032 30.006 13.0672 26.726C13.2858 23.446 13.4498 20.412 13.5592 17.624C13.6685 14.836 13.7232 12.622 13.7232 10.982C13.7232 8.08466 13.5045 6.00733 13.0672 4.75C12.6845 3.49267 11.5912 2.864 9.78717 2.864C9.24051 2.864 8.63917 2.91867 7.98317 3.028C7.32717 3.13733 6.58917 3.274 5.76917 3.438L7.24517 0.978C7.79184 1.03267 8.63917 1.142 9.78717 1.306C10.9898 1.41533 12.3565 1.52466 13.8872 1.634C15.4178 1.68866 16.8938 1.716 18.3152 1.716C19.1352 1.716 20.2012 1.68866 21.5132 1.634C22.8252 1.57933 24.1645 1.49733 25.5312 1.388C26.9525 1.27866 28.2098 1.19666 29.3032 1.142C30.4512 1.08733 31.2165 1.06 31.5992 1.06C36.2458 1.06 39.9358 1.88 42.6692 3.52C45.4025 5.16 46.7692 8.13933 46.7692 12.458C46.7692 14.754 46.2225 17.0227 45.1292 19.264C44.0905 21.4507 42.6965 23.3367 40.9472 24.922C39.1978 26.5073 37.3118 27.6007 35.2892 28.202C36.7105 31.154 38.4325 34.188 40.4552 37.304C42.4778 40.42 44.6645 43.29 47.0152 45.914C49.4205 48.538 51.8805 50.6427 54.3952 52.228C56.9645 53.7587 59.5065 54.4693 62.0212 54.36L61.0372 56.164C59.8345 56.2733 58.7138 56.41 57.6752 56.574C56.6365 56.7927 55.5705 56.902 54.4772 56.902ZM87.9108 59.116C87.6921 58.624 87.3914 58.132 87.0088 57.64C86.6808 57.148 86.1341 56.4647 85.3688 55.59C84.1661 54.114 83.4008 52.8567 83.0728 51.818C83.1821 52.146 83.0454 51.6267 82.6628 50.26C82.2801 48.8933 81.7608 47.0073 81.1048 44.602C80.4488 42.1967 79.7108 39.6 78.8908 36.812C78.1254 33.9693 77.3601 31.236 76.5948 28.612C75.8841 25.9333 75.2554 23.6373 74.7088 21.724C74.2168 19.8107 73.8888 18.608 73.7248 18.116C72.7408 14.508 71.9481 11.6107 71.3468 9.424C70.7454 7.18266 69.9254 5.54266 68.8868 4.504C67.9028 3.46533 66.2628 2.946 63.9668 2.946C63.4748 2.946 63.0374 2.97333 62.6548 3.028C62.2721 3.08266 61.9168 3.13733 61.5888 3.192L62.9008 0.731998C63.1741 0.786664 63.7754 0.868665 64.7048 0.978C65.6888 1.08733 66.7821 1.16933 67.9848 1.224C69.2421 1.27866 70.4174 1.33333 71.5108 1.388C72.6588 1.44267 73.5061 1.47 74.0528 1.47C75.8021 1.47 77.6881 1.41533 79.7108 1.306C81.7881 1.142 84.0294 0.923332 86.4348 0.649999L84.6308 3.192C83.6468 3.13733 82.6354 3.21933 81.5968 3.438C80.5581 3.602 79.7108 3.98467 79.0548 4.586C78.4534 5.18733 78.2348 6.08933 78.3988 7.292C78.7268 9.64267 79.2734 12.4307 80.0388 15.656C80.8041 18.8267 81.6788 22.216 82.6628 25.824C83.7014 29.3773 84.7948 32.9307 85.9428 36.484C87.0908 39.9827 88.1841 43.2627 89.2228 46.324C89.6054 45.832 90.2068 44.8753 91.0268 43.454C91.8468 42.0327 92.7488 40.338 93.7328 38.37C94.7714 36.402 95.7828 34.352 96.7668 32.22C97.8054 30.088 98.7348 28.0927 99.5548 26.234C101.96 20.7127 103.846 16.1753 105.213 12.622C106.579 9.014 107.263 6.69066 107.263 5.652C107.263 4.61333 106.853 3.93 106.033 3.602C105.213 3.274 104.229 3.11 103.081 3.11C102.589 3.11 102.069 3.13733 101.523 3.192C100.976 3.24666 100.429 3.30133 99.8828 3.356L101.769 0.731998C102.151 0.895999 102.999 1.03267 104.311 1.142C105.677 1.19666 107.126 1.224 108.657 1.224C110.187 1.224 111.445 1.224 112.429 1.224C114.233 1.224 116.146 1.19666 118.169 1.142C120.191 1.08733 122.077 0.950665 123.827 0.731998L122.269 3.028C120.465 3.028 118.661 3.52 116.857 4.504C113.905 6.308 108.793 14.672 101.523 29.596C94.7441 43.536 90.6441 53.1847 89.2228 58.542L87.9108 59.116Z" fill="white"/>
</svg>
