<svg width="32" height="32" viewBox="0 0 32 32" fill="none" xmlns="http://www.w3.org/2000/svg">
<path d="M29.446 0.590942H3.0767C2.45962 0.590942 1.86782 0.836077 1.43148 1.27242C0.995134 1.70876 0.75 2.30057 0.75 2.91765V29.287C0.75 29.904 0.995134 30.4959 1.43148 30.9322C1.86782 31.3685 2.45962 31.6137 3.0767 31.6137H29.446C30.0631 31.6137 30.6549 31.3685 31.0912 30.9322C31.5276 30.4959 31.7727 29.904 31.7727 29.287V2.91765C31.7727 2.30057 31.5276 1.70876 31.0912 1.27242C30.6549 0.836077 30.0631 0.590942 29.446 0.590942ZM10.0568 26.9603H5.40341V13H10.0568V26.9603ZM7.73011 10.2855C7.19681 10.2703 6.67982 10.0982 6.24374 9.79085C5.80766 9.48346 5.47184 9.05439 5.27822 8.55723C5.08461 8.06008 5.0418 7.51689 5.15513 6.99554C5.26847 6.47419 5.53292 5.9978 5.91546 5.62589C6.29799 5.25398 6.78164 5.00305 7.30598 4.90444C7.83031 4.80583 8.37208 4.86393 8.86358 5.07147C9.35509 5.279 9.77454 5.62678 10.0695 6.07134C10.3645 6.5159 10.5219 7.03753 10.5222 7.57106C10.5099 8.30063 10.2094 8.9957 9.68617 9.50434C9.163 10.013 8.45975 10.2938 7.73011 10.2855ZM27.1193 26.9603H22.4659V19.6079C22.4659 17.4053 21.5352 16.6142 20.3253 16.6142C19.9706 16.6378 19.624 16.7313 19.3055 16.8892C18.987 17.0472 18.7029 17.2665 18.4694 17.5346C18.2359 17.8026 18.0577 18.1142 17.9449 18.4514C17.8322 18.7886 17.7872 19.1447 17.8125 19.4993C17.8048 19.5715 17.8048 19.6443 17.8125 19.7165V26.9603H13.1591V13H17.6574V15.0165C18.1111 14.3263 18.7345 13.7641 19.4679 13.3838C20.2012 13.0036 21.0199 12.818 21.8455 12.8449C24.2497 12.8449 27.0573 14.1789 27.0573 18.5221L27.1193 26.9603Z" fill="white"/>
</svg>
