<svg width="31" height="25" viewBox="0 0 31 25" fill="none" xmlns="http://www.w3.org/2000/svg">
<path d="M3.67045 24.1666C2.85014 24.1666 2.1479 23.8811 1.56374 23.3099C0.979581 22.7387 0.6875 22.0521 0.6875 21.25V3.74998C0.6875 2.9479 0.979581 2.26126 1.56374 1.69008C2.1479 1.1189 2.85014 0.833313 3.67045 0.833313H27.5341C28.3544 0.833313 29.0566 1.1189 29.6408 1.69008C30.225 2.26126 30.517 2.9479 30.517 3.74998V21.25C30.517 22.0521 30.225 22.7387 29.6408 23.3099C29.0566 23.8811 28.3544 24.1666 27.5341 24.1666H3.67045ZM15.6023 13.9583L3.67045 6.66665V21.25H27.5341V6.66665L15.6023 13.9583ZM15.6023 11.0416L27.5341 3.74998H3.67045L15.6023 11.0416ZM3.67045 6.66665V3.74998V21.25V6.66665Z" fill="#E8EAED"/>
</svg>
