<svg width="32" height="31" viewBox="0 0 32 31" fill="none" xmlns="http://www.w3.org/2000/svg">
<path d="M15.9091 0.386353C7.11897 0.386353 0 7.32033 0 15.882C0 22.7392 4.55415 28.5306 10.8777 30.5827C11.6731 30.7188 11.9706 30.2539 11.9706 29.847C11.9706 29.4792 11.9512 28.2597 11.9512 26.9608C7.95455 27.6776 6.92115 26.0122 6.60296 25.1417C6.42312 24.6957 5.64842 23.32 4.97055 22.9521C4.41443 22.6611 3.61897 21.9442 4.95119 21.9254C6.20455 21.9065 7.09961 23.0491 7.39842 23.514C8.83024 25.8586 11.117 25.1983 12.0314 24.7914C12.1698 23.7848 12.5876 23.1071 13.0455 22.719C9.50534 22.3323 5.80751 20.9956 5.80751 15.0682C5.80751 13.3839 6.42312 11.9892 7.43715 10.9046C7.27806 10.5165 6.72194 8.92784 7.59625 6.79752C7.59625 6.79752 8.92846 6.39059 11.9719 8.38617C13.2447 8.03718 14.5962 7.86336 15.9492 7.86336C17.3008 7.86336 18.6538 8.03852 19.9265 8.38617C22.97 6.37173 24.3008 6.79752 24.3008 6.79752C25.1765 8.92784 24.619 10.5165 24.4599 10.9046C25.4739 11.9892 26.0909 13.3636 26.0909 15.0682C26.0909 21.0145 22.3723 22.3309 18.8322 22.719C19.4091 23.2041 19.9057 24.1338 19.9057 25.5864C19.9057 27.6588 19.8864 29.3242 19.8864 29.847C19.8864 30.2539 20.1852 30.739 20.9792 30.5841C27.2654 28.5306 31.8182 22.719 31.8182 15.882C31.8182 7.32033 24.6992 0.386353 15.9091 0.386353Z" fill="white"/>
</svg>
