<svg width="34" height="33" viewBox="0 0 34 33" fill="none" xmlns="http://www.w3.org/2000/svg">
<path d="M24.5644 18.7402C24.5009 18.7097 22.1232 17.5389 21.7007 17.3869C21.5283 17.3249 21.3435 17.2644 21.147 17.2644C20.8259 17.2644 20.5562 17.4244 20.3461 17.7387C20.1086 18.0918 19.3896 18.9322 19.1675 19.1832C19.1385 19.2164 19.0989 19.256 19.0751 19.256C19.0539 19.256 18.6859 19.1045 18.5745 19.0561C16.024 17.9482 14.088 15.2839 13.8225 14.8346C13.7846 14.77 13.783 14.7407 13.7827 14.7407C13.792 14.7065 13.8778 14.6205 13.9221 14.5762C14.0516 14.448 14.1919 14.2791 14.3276 14.1157C14.3919 14.0383 14.4563 13.9608 14.5195 13.8878C14.7165 13.6586 14.8041 13.4807 14.9058 13.2747L14.959 13.1676C15.2072 12.6745 14.9953 12.2584 14.9267 12.124C14.8705 12.0115 13.8666 9.5886 13.7599 9.33404C13.5032 8.71978 13.164 8.43378 12.6927 8.43378C12.649 8.43378 12.6927 8.43378 12.5093 8.44151C12.286 8.45093 11.0699 8.61103 10.5322 8.94998C9.96196 9.30947 8.99731 10.4554 8.99731 12.4707C8.99731 14.2844 10.1483 15.997 10.6425 16.6483C10.6548 16.6647 10.6773 16.698 10.7101 16.7459C12.6026 19.5098 14.9619 21.5581 17.3536 22.5135C19.6561 23.4333 20.7465 23.5396 21.3664 23.5396H21.3665C21.6269 23.5396 21.8354 23.5192 22.0194 23.5011L22.1361 23.4899C22.9315 23.4194 24.6795 22.5137 25.0771 21.4087C25.3903 20.5384 25.4729 19.5875 25.2645 19.2424C25.1218 19.0078 24.8758 18.8897 24.5644 18.7402Z" fill="white"/>
<path d="M17.0282 0C8.19539 0 1.00938 7.13201 1.00938 15.8984C1.00938 18.7338 1.76817 21.5092 3.20561 23.9383L0.454309 32.0541C0.403059 32.2054 0.441178 32.3727 0.553102 32.4867C0.633895 32.5692 0.74349 32.6136 0.855414 32.6136C0.898299 32.6136 0.941501 32.6072 0.983645 32.5937L9.44625 29.9046C11.762 31.1419 14.3794 31.795 17.0283 31.795C25.8602 31.7951 33.0455 24.6639 33.0455 15.8984C33.0455 7.13201 25.8602 0 17.0282 0ZM17.0282 28.4834C14.5357 28.4834 12.1215 27.7636 10.0463 26.4019C9.97654 26.3561 9.89553 26.3325 9.814 26.3325C9.7709 26.3325 9.7277 26.3391 9.68566 26.3525L5.44642 27.7L6.81492 23.6626C6.85918 23.5319 6.83705 23.3878 6.75552 23.2764C5.17524 21.1171 4.33988 18.5659 4.33988 15.8984C4.33988 8.95816 10.0318 3.31177 17.0281 3.31177C24.0235 3.31177 29.7148 8.95816 29.7148 15.8984C29.7149 22.8378 24.0237 28.4834 17.0282 28.4834Z" fill="white"/>
</svg>
