<svg width="467" height="52" viewBox="0 0 467 52" fill="none" xmlns="http://www.w3.org/2000/svg">
<path d="M35.74 31.4618L37 30.7618L38.26 31.4711L37.93 30.1447L39.04 29.2605L37.58 29.1408L37 27.8882L36.42 29.1316L34.96 29.2513L36.07 30.1447L35.74 31.4618ZM34.53 33L35.18 30.4118L33 28.6711L35.88 28.4408L37 26L38.12 28.4408L41 28.6711L38.82 30.4118L39.47 33L37 31.6276L34.53 33Z" fill="#9F9F9F"/>
<path d="M35.74 31.4618L37 30.7618L38.26 31.4711L37.93 30.1447L39.04 29.2605L37.58 29.1408L37 27.8882L36.42 29.1316L34.96 29.2513L36.07 30.1447L35.74 31.4618Z" fill="#9F9F9F"/>
<path d="M426.74 31.4618L428 30.7618L429.26 31.4711L428.93 30.1447L430.04 29.2605L428.58 29.1408L428 27.8882L427.42 29.1316L425.96 29.2513L427.07 30.1447L426.74 31.4618ZM425.53 33L426.18 30.4118L424 28.6711L426.88 28.4408L428 26L429.12 28.4408L432 28.6711L429.82 30.4118L430.47 33L428 31.6276L425.53 33Z" fill="#9F9F9F"/>
<path d="M426.74 31.4618L428 30.7618L429.26 31.4711L428.93 30.1447L430.04 29.2605L428.58 29.1408L428 27.8882L427.42 29.1316L425.96 29.2513L427.07 30.1447L426.74 31.4618Z" fill="#9F9F9F"/>
<path d="M95.11 30.5829L97 29.4829L98.89 30.5974L98.395 28.5132L100.06 27.1237L97.87 26.9355L97 24.9671L96.13 26.9211L93.94 27.1092L95.605 28.5132L95.11 30.5829ZM93.295 33L94.27 28.9329L91 26.1974L95.32 25.8355L97 22L98.68 25.8355L103 26.1974L99.73 28.9329L100.705 33L97 30.8434L93.295 33Z" fill="#E8EAED"/>
<path d="M95.11 30.5829L97 29.4829L98.89 30.5974L98.395 28.5132L100.06 27.1237L97.87 26.9355L97 24.9671L96.13 26.9211L93.94 27.1092L95.605 28.5132L95.11 30.5829Z" fill="#E8EAED"/>
<path d="M368.11 30.5829L370 29.4829L371.89 30.5974L371.395 28.5132L373.06 27.1237L370.87 26.9355L370 24.9671L369.13 26.9211L366.94 27.1092L368.605 28.5132L368.11 30.5829ZM366.295 33L367.27 28.9329L364 26.1974L368.32 25.8355L370 22L371.68 25.8355L376 26.1974L372.73 28.9329L373.705 33L370 30.8434L366.295 33Z" fill="#E8EAED"/>
<path d="M368.11 30.5829L370 29.4829L371.89 30.5974L371.395 28.5132L373.06 27.1237L370.87 26.9355L370 24.9671L369.13 26.9211L366.94 27.1092L368.605 28.5132L368.11 30.5829Z" fill="#E8EAED"/>
<path d="M165.562 32.9461L169.5 30.6461L173.438 32.9763L172.406 28.6184L175.875 25.7132L171.312 25.3197L169.5 21.2039L167.688 25.2895L163.125 25.6829L166.594 28.6184L165.562 32.9461ZM161.781 38L163.813 29.4961L157 23.7763L166 23.0197L169.5 15L173 23.0197L182 23.7763L175.188 29.4961L177.219 38L169.5 33.4908L161.781 38Z" fill="#E8EAED"/>
<path d="M165.562 32.9461L169.5 30.6461L173.438 32.9763L172.406 28.6184L175.875 25.7132L171.312 25.3197L169.5 21.2039L167.688 25.2895L163.125 25.6829L166.594 28.6184L165.562 32.9461Z" fill="#E8EAED"/>
<path d="M294.562 33.9461L298.5 31.6461L302.438 33.9763L301.406 29.6184L304.875 26.7132L300.312 26.3197L298.5 22.2039L296.688 26.2895L292.125 26.6829L295.594 29.6184L294.562 33.9461ZM290.781 39L292.813 30.4961L286 24.7763L295 24.0197L298.5 16L302 24.0197L311 24.7763L304.188 30.4961L306.219 39L298.5 34.4908L290.781 39Z" fill="#E8EAED"/>
<path d="M294.562 33.9461L298.5 31.6461L302.438 33.9763L301.406 29.6184L304.875 26.7132L300.312 26.3197L298.5 22.2039L296.688 26.2895L292.125 26.6829L295.594 29.6184L294.562 33.9461Z" fill="#E8EAED"/>
<path d="M230.661 46.627C228.343 46.627 226.31 46.209 224.562 45.373C222.852 44.499 221.465 43.188 220.401 41.44C218.767 38.742 217.456 36.614 216.468 35.056C215.518 33.46 214.777 32.244 214.245 31.408C213.713 30.572 213.276 29.945 212.934 29.527C212.592 29.071 212.231 28.672 211.851 28.33C211.243 28.406 210.654 28.463 210.084 28.501C209.552 28.539 209.02 28.558 208.488 28.558L209.4 27.019C212.516 27.019 215.081 26.221 217.095 24.625C219.109 23.029 220.23 20.73 220.458 17.728C220.572 15.334 219.907 13.472 218.463 12.142C217.057 10.812 215.271 10.147 213.105 10.147C211.585 10.147 210.369 10.204 209.457 10.318C208.583 10.432 208.051 10.869 207.861 11.629C207.671 12.769 207.481 14.289 207.291 16.189C207.101 18.089 206.911 20.179 206.721 22.459C206.531 24.739 206.36 27.019 206.208 29.299C206.056 31.541 205.923 33.593 205.809 35.455C205.733 37.317 205.695 38.78 205.695 39.844C205.695 41.402 205.866 42.523 206.208 43.207C206.588 43.891 207.253 44.309 208.203 44.461C209.191 44.613 210.578 44.689 212.364 44.689L211.338 46.399C210.236 46.209 209.058 46.076 207.804 46C206.55 45.886 205.239 45.829 203.871 45.829C202.883 45.829 201.458 45.886 199.596 46C197.772 46.076 195.53 46.209 192.87 46.399L193.668 44.746C193.972 44.822 194.276 44.86 194.58 44.86C195.226 44.86 195.948 44.765 196.746 44.575C197.582 44.347 198.323 44.043 198.969 43.663C199.615 43.245 200.014 42.77 200.166 42.238C200.394 41.402 200.622 40.11 200.85 38.362C201.078 36.614 201.268 34.638 201.42 32.434C201.61 30.192 201.762 27.931 201.876 25.651C202.028 23.371 202.142 21.262 202.218 19.324C202.294 17.386 202.332 15.847 202.332 14.707C202.332 12.693 202.18 11.249 201.876 10.375C201.61 9.501 200.85 9.064 199.596 9.064C199.216 9.064 198.798 9.102 198.342 9.178C197.886 9.254 197.373 9.349 196.803 9.463L197.829 7.753C198.209 7.791 198.798 7.867 199.596 7.981C200.432 8.057 201.382 8.133 202.446 8.209C203.51 8.247 204.536 8.266 205.524 8.266C206.094 8.266 206.835 8.247 207.747 8.209C208.659 8.171 209.59 8.114 210.54 8.038C211.528 7.962 212.402 7.905 213.162 7.867C213.96 7.829 214.492 7.81 214.758 7.81C217.988 7.81 220.553 8.38 222.453 9.52C224.353 10.66 225.303 12.731 225.303 15.733C225.303 17.329 224.923 18.906 224.163 20.464C223.441 21.984 222.472 23.295 221.256 24.397C220.04 25.499 218.729 26.259 217.323 26.677C218.311 28.729 219.508 30.838 220.914 33.004C222.32 35.17 223.84 37.165 225.474 38.989C227.146 40.813 228.856 42.276 230.604 43.378C232.39 44.442 234.157 44.936 235.905 44.86L235.221 46.114C234.385 46.19 233.606 46.285 232.884 46.399C232.162 46.551 231.421 46.627 230.661 46.627ZM253.901 48.166C253.749 47.824 253.54 47.482 253.274 47.14C253.046 46.798 252.666 46.323 252.134 45.715C251.298 44.689 250.766 43.815 250.538 43.093C250.614 43.321 250.519 42.96 250.253 42.01C249.987 41.06 249.626 39.749 249.17 38.077C248.714 36.405 248.201 34.6 247.631 32.662C247.099 30.686 246.567 28.786 246.035 26.962C245.541 25.1 245.104 23.504 244.724 22.174C244.382 20.844 244.154 20.008 244.04 19.666C243.356 17.158 242.805 15.144 242.387 13.624C241.969 12.066 241.399 10.926 240.677 10.204C239.993 9.482 238.853 9.121 237.257 9.121C236.915 9.121 236.611 9.14 236.345 9.178C236.079 9.216 235.832 9.254 235.604 9.292L236.516 7.582C236.706 7.62 237.124 7.677 237.77 7.753C238.454 7.829 239.214 7.886 240.05 7.924C240.924 7.962 241.741 8 242.501 8.038C243.299 8.076 243.888 8.095 244.268 8.095C245.484 8.095 246.795 8.057 248.201 7.981C249.645 7.867 251.203 7.715 252.875 7.525L251.621 9.292C250.937 9.254 250.234 9.311 249.512 9.463C248.79 9.577 248.201 9.843 247.745 10.261C247.327 10.679 247.175 11.306 247.289 12.142C247.517 13.776 247.897 15.714 248.429 17.956C248.961 20.16 249.569 22.516 250.253 25.024C250.975 27.494 251.735 29.964 252.533 32.434C253.331 34.866 254.091 37.146 254.813 39.274C255.079 38.932 255.497 38.267 256.067 37.279C256.637 36.291 257.264 35.113 257.948 33.745C258.67 32.377 259.373 30.952 260.057 29.47C260.779 27.988 261.425 26.601 261.995 25.309C263.667 21.471 264.978 18.317 265.928 15.847C266.878 13.339 267.353 11.724 267.353 11.002C267.353 10.28 267.068 9.805 266.498 9.577C265.928 9.349 265.244 9.235 264.446 9.235C264.104 9.235 263.743 9.254 263.363 9.292C262.983 9.33 262.603 9.368 262.223 9.406L263.534 7.582C263.8 7.696 264.389 7.791 265.301 7.867C266.251 7.905 267.258 7.924 268.322 7.924C269.386 7.924 270.26 7.924 270.944 7.924C272.198 7.924 273.528 7.905 274.934 7.867C276.34 7.829 277.651 7.734 278.867 7.582L277.784 9.178C276.53 9.178 275.276 9.52 274.022 10.204C271.97 11.458 268.417 17.272 263.363 27.646C258.651 37.336 255.801 44.043 254.813 47.767L253.901 48.166Z" fill="white"/>
<path d="M127.845 37.352C126.543 37.352 125.402 37.1173 124.421 36.648C123.461 36.1573 122.682 35.4213 122.085 34.44C121.167 32.9253 120.431 31.7307 119.877 30.856C119.343 29.96 118.927 29.2773 118.629 28.808C118.33 28.3387 118.085 27.9867 117.893 27.752C117.701 27.496 117.498 27.272 117.285 27.08C116.943 27.1227 116.613 27.1547 116.293 27.176C115.994 27.1973 115.695 27.208 115.397 27.208L115.909 26.344C117.658 26.344 119.098 25.896 120.229 25C121.359 24.104 121.989 22.8133 122.117 21.128C122.181 19.784 121.807 18.7387 120.997 17.992C120.207 17.2453 119.205 16.872 117.989 16.872C117.135 16.872 116.453 16.904 115.941 16.968C115.45 17.032 115.151 17.2773 115.045 17.704C114.938 18.344 114.831 19.1973 114.725 20.264C114.618 21.3307 114.511 22.504 114.405 23.784C114.298 25.064 114.202 26.344 114.117 27.624C114.031 28.8827 113.957 30.0347 113.893 31.08C113.85 32.1253 113.829 32.9467 113.829 33.544C113.829 34.4187 113.925 35.048 114.117 35.432C114.33 35.816 114.703 36.0507 115.237 36.136C115.791 36.2213 116.57 36.264 117.573 36.264L116.997 37.224C116.378 37.1173 115.717 37.0427 115.013 37C114.309 36.936 113.573 36.904 112.805 36.904C112.25 36.904 111.45 36.936 110.405 37C109.381 37.0427 108.122 37.1173 106.629 37.224L107.077 36.296C107.247 36.3387 107.418 36.36 107.589 36.36C107.951 36.36 108.357 36.3067 108.805 36.2C109.274 36.072 109.69 35.9013 110.053 35.688C110.415 35.4533 110.639 35.1867 110.725 34.888C110.853 34.4187 110.981 33.6933 111.109 32.712C111.237 31.7307 111.343 30.6213 111.429 29.384C111.535 28.1253 111.621 26.856 111.685 25.576C111.77 24.296 111.834 23.112 111.877 22.024C111.919 20.936 111.941 20.072 111.941 19.432C111.941 18.3013 111.855 17.4907 111.685 17C111.535 16.5093 111.109 16.264 110.405 16.264C110.191 16.264 109.957 16.2853 109.701 16.328C109.445 16.3707 109.157 16.424 108.837 16.488L109.413 15.528C109.626 15.5493 109.957 15.592 110.405 15.656C110.874 15.6987 111.407 15.7413 112.005 15.784C112.602 15.8053 113.178 15.816 113.733 15.816C114.053 15.816 114.469 15.8053 114.981 15.784C115.493 15.7627 116.015 15.7307 116.549 15.688C117.103 15.6453 117.594 15.6133 118.021 15.592C118.469 15.5707 118.767 15.56 118.917 15.56C120.73 15.56 122.17 15.88 123.237 16.52C124.303 17.16 124.837 18.3227 124.837 20.008C124.837 20.904 124.623 21.7893 124.197 22.664C123.791 23.5173 123.247 24.2533 122.565 24.872C121.882 25.4907 121.146 25.9173 120.357 26.152C120.911 27.304 121.583 28.488 122.373 29.704C123.162 30.92 124.015 32.04 124.933 33.064C125.871 34.088 126.831 34.9093 127.813 35.528C128.815 36.1253 129.807 36.4027 130.789 36.36L130.405 37.064C129.935 37.1067 129.498 37.16 129.093 37.224C128.687 37.3093 128.271 37.352 127.845 37.352ZM140.892 38.216C140.807 38.024 140.689 37.832 140.54 37.64C140.412 37.448 140.199 37.1813 139.9 36.84C139.431 36.264 139.132 35.7733 139.004 35.368C139.047 35.496 138.993 35.2933 138.844 34.76C138.695 34.2267 138.492 33.4907 138.236 32.552C137.98 31.6133 137.692 30.6 137.372 29.512C137.073 28.4027 136.775 27.336 136.476 26.312C136.199 25.2667 135.953 24.3707 135.74 23.624C135.548 22.8773 135.42 22.408 135.356 22.216C134.972 20.808 134.663 19.6773 134.428 18.824C134.193 17.9493 133.873 17.3093 133.468 16.904C133.084 16.4987 132.444 16.296 131.548 16.296C131.356 16.296 131.185 16.3067 131.036 16.328C130.887 16.3493 130.748 16.3707 130.62 16.392L131.132 15.432C131.239 15.4533 131.473 15.4853 131.836 15.528C132.22 15.5707 132.647 15.6027 133.116 15.624C133.607 15.6453 134.065 15.6667 134.492 15.688C134.94 15.7093 135.271 15.72 135.484 15.72C136.167 15.72 136.903 15.6987 137.692 15.656C138.503 15.592 139.377 15.5067 140.316 15.4L139.612 16.392C139.228 16.3707 138.833 16.4027 138.428 16.488C138.023 16.552 137.692 16.7013 137.436 16.936C137.201 17.1707 137.116 17.5227 137.18 17.992C137.308 18.9093 137.521 19.9973 137.82 21.256C138.119 22.4933 138.46 23.816 138.844 25.224C139.249 26.6107 139.676 27.9973 140.124 29.384C140.572 30.7493 140.999 32.0293 141.404 33.224C141.553 33.032 141.788 32.6587 142.108 32.104C142.428 31.5493 142.78 30.888 143.164 30.12C143.569 29.352 143.964 28.552 144.348 27.72C144.753 26.888 145.116 26.1093 145.436 25.384C146.375 23.2293 147.111 21.4587 147.644 20.072C148.177 18.664 148.444 17.7573 148.444 17.352C148.444 16.9467 148.284 16.68 147.964 16.552C147.644 16.424 147.26 16.36 146.812 16.36C146.62 16.36 146.417 16.3707 146.204 16.392C145.991 16.4133 145.777 16.4347 145.564 16.456L146.3 15.432C146.449 15.496 146.78 15.5493 147.292 15.592C147.825 15.6133 148.391 15.624 148.988 15.624C149.585 15.624 150.076 15.624 150.46 15.624C151.164 15.624 151.911 15.6133 152.7 15.592C153.489 15.5707 154.225 15.5173 154.908 15.432L154.3 16.328C153.596 16.328 152.892 16.52 152.188 16.904C151.036 17.608 149.041 20.872 146.204 26.696C143.559 32.136 141.959 35.9013 141.404 37.992L140.892 38.216Z" fill="white"/>
<path d="M335.345 37.352C334.043 37.352 332.902 37.1173 331.921 36.648C330.961 36.1573 330.182 35.4213 329.585 34.44C328.667 32.9253 327.931 31.7307 327.377 30.856C326.843 29.96 326.427 29.2773 326.129 28.808C325.83 28.3387 325.585 27.9867 325.393 27.752C325.201 27.496 324.998 27.272 324.785 27.08C324.443 27.1227 324.113 27.1547 323.793 27.176C323.494 27.1973 323.195 27.208 322.897 27.208L323.409 26.344C325.158 26.344 326.598 25.896 327.729 25C328.859 24.104 329.489 22.8133 329.617 21.128C329.681 19.784 329.307 18.7387 328.497 17.992C327.707 17.2453 326.705 16.872 325.489 16.872C324.635 16.872 323.953 16.904 323.441 16.968C322.95 17.032 322.651 17.2773 322.545 17.704C322.438 18.344 322.331 19.1973 322.225 20.264C322.118 21.3307 322.011 22.504 321.905 23.784C321.798 25.064 321.702 26.344 321.617 27.624C321.531 28.8827 321.457 30.0347 321.393 31.08C321.35 32.1253 321.329 32.9467 321.329 33.544C321.329 34.4187 321.425 35.048 321.617 35.432C321.83 35.816 322.203 36.0507 322.737 36.136C323.291 36.2213 324.07 36.264 325.073 36.264L324.497 37.224C323.878 37.1173 323.217 37.0427 322.513 37C321.809 36.936 321.073 36.904 320.305 36.904C319.75 36.904 318.95 36.936 317.905 37C316.881 37.0427 315.622 37.1173 314.129 37.224L314.577 36.296C314.747 36.3387 314.918 36.36 315.089 36.36C315.451 36.36 315.857 36.3067 316.305 36.2C316.774 36.072 317.19 35.9013 317.553 35.688C317.915 35.4533 318.139 35.1867 318.225 34.888C318.353 34.4187 318.481 33.6933 318.609 32.712C318.737 31.7307 318.843 30.6213 318.929 29.384C319.035 28.1253 319.121 26.856 319.185 25.576C319.27 24.296 319.334 23.112 319.377 22.024C319.419 20.936 319.441 20.072 319.441 19.432C319.441 18.3013 319.355 17.4907 319.185 17C319.035 16.5093 318.609 16.264 317.905 16.264C317.691 16.264 317.457 16.2853 317.201 16.328C316.945 16.3707 316.657 16.424 316.337 16.488L316.913 15.528C317.126 15.5493 317.457 15.592 317.905 15.656C318.374 15.6987 318.907 15.7413 319.505 15.784C320.102 15.8053 320.678 15.816 321.233 15.816C321.553 15.816 321.969 15.8053 322.481 15.784C322.993 15.7627 323.515 15.7307 324.049 15.688C324.603 15.6453 325.094 15.6133 325.521 15.592C325.969 15.5707 326.267 15.56 326.417 15.56C328.23 15.56 329.67 15.88 330.737 16.52C331.803 17.16 332.337 18.3227 332.337 20.008C332.337 20.904 332.123 21.7893 331.697 22.664C331.291 23.5173 330.747 24.2533 330.065 24.872C329.382 25.4907 328.646 25.9173 327.857 26.152C328.411 27.304 329.083 28.488 329.873 29.704C330.662 30.92 331.515 32.04 332.433 33.064C333.371 34.088 334.331 34.9093 335.313 35.528C336.315 36.1253 337.307 36.4027 338.289 36.36L337.905 37.064C337.435 37.1067 336.998 37.16 336.593 37.224C336.187 37.3093 335.771 37.352 335.345 37.352ZM348.392 38.216C348.307 38.024 348.189 37.832 348.04 37.64C347.912 37.448 347.699 37.1813 347.4 36.84C346.931 36.264 346.632 35.7733 346.504 35.368C346.547 35.496 346.493 35.2933 346.344 34.76C346.195 34.2267 345.992 33.4907 345.736 32.552C345.48 31.6133 345.192 30.6 344.872 29.512C344.573 28.4027 344.275 27.336 343.976 26.312C343.699 25.2667 343.453 24.3707 343.24 23.624C343.048 22.8773 342.92 22.408 342.856 22.216C342.472 20.808 342.163 19.6773 341.928 18.824C341.693 17.9493 341.373 17.3093 340.968 16.904C340.584 16.4987 339.944 16.296 339.048 16.296C338.856 16.296 338.685 16.3067 338.536 16.328C338.387 16.3493 338.248 16.3707 338.12 16.392L338.632 15.432C338.739 15.4533 338.973 15.4853 339.336 15.528C339.72 15.5707 340.147 15.6027 340.616 15.624C341.107 15.6453 341.565 15.6667 341.992 15.688C342.44 15.7093 342.771 15.72 342.984 15.72C343.667 15.72 344.403 15.6987 345.192 15.656C346.003 15.592 346.877 15.5067 347.816 15.4L347.112 16.392C346.728 16.3707 346.333 16.4027 345.928 16.488C345.523 16.552 345.192 16.7013 344.936 16.936C344.701 17.1707 344.616 17.5227 344.68 17.992C344.808 18.9093 345.021 19.9973 345.32 21.256C345.619 22.4933 345.96 23.816 346.344 25.224C346.749 26.6107 347.176 27.9973 347.624 29.384C348.072 30.7493 348.499 32.0293 348.904 33.224C349.053 33.032 349.288 32.6587 349.608 32.104C349.928 31.5493 350.28 30.888 350.664 30.12C351.069 29.352 351.464 28.552 351.848 27.72C352.253 26.888 352.616 26.1093 352.936 25.384C353.875 23.2293 354.611 21.4587 355.144 20.072C355.677 18.664 355.944 17.7573 355.944 17.352C355.944 16.9467 355.784 16.68 355.464 16.552C355.144 16.424 354.76 16.36 354.312 16.36C354.12 16.36 353.917 16.3707 353.704 16.392C353.491 16.4133 353.277 16.4347 353.064 16.456L353.8 15.432C353.949 15.496 354.28 15.5493 354.792 15.592C355.325 15.6133 355.891 15.624 356.488 15.624C357.085 15.624 357.576 15.624 357.96 15.624C358.664 15.624 359.411 15.6133 360.2 15.592C360.989 15.5707 361.725 15.5173 362.408 15.432L361.8 16.328C361.096 16.328 360.392 16.52 359.688 16.904C358.536 17.608 356.541 20.872 353.704 26.696C351.059 32.136 349.459 35.9013 348.904 37.992L348.392 38.216Z" fill="white"/>
<path d="M64.1142 37.308C62.9755 37.308 61.9768 37.1027 61.1182 36.692C60.2782 36.2627 59.5968 35.6187 59.0742 34.76C58.2715 33.4347 57.6275 32.3893 57.1422 31.624C56.6755 30.84 56.3115 30.2427 56.0502 29.832C55.7888 29.4213 55.5742 29.1133 55.4062 28.908C55.2382 28.684 55.0608 28.488 54.8742 28.32C54.5755 28.3573 54.2862 28.3853 54.0062 28.404C53.7448 28.4227 53.4835 28.432 53.2222 28.432L53.6702 27.676C55.2008 27.676 56.4608 27.284 57.4502 26.5C58.4395 25.716 58.9902 24.5867 59.1022 23.112C59.1582 21.936 58.8315 21.0213 58.1222 20.368C57.4315 19.7147 56.5542 19.388 55.4902 19.388C54.7435 19.388 54.1462 19.416 53.6982 19.472C53.2688 19.528 53.0075 19.7427 52.9142 20.116C52.8208 20.676 52.7275 21.4227 52.6342 22.356C52.5408 23.2893 52.4475 24.316 52.3542 25.436C52.2608 26.556 52.1768 27.676 52.1022 28.796C52.0275 29.8973 51.9622 30.9053 51.9062 31.82C51.8688 32.7347 51.8502 33.4533 51.8502 33.976C51.8502 34.7413 51.9342 35.292 52.1022 35.628C52.2888 35.964 52.6155 36.1693 53.0822 36.244C53.5675 36.3187 54.2488 36.356 55.1262 36.356L54.6222 37.196C54.0808 37.1027 53.5022 37.0373 52.8862 37C52.2702 36.944 51.6262 36.916 50.9542 36.916C50.4688 36.916 49.7688 36.944 48.8542 37C47.9582 37.0373 46.8568 37.1027 45.5502 37.196L45.9422 36.384C46.0915 36.4213 46.2408 36.44 46.3902 36.44C46.7075 36.44 47.0622 36.3933 47.4542 36.3C47.8648 36.188 48.2288 36.0387 48.5462 35.852C48.8635 35.6467 49.0595 35.4133 49.1342 35.152C49.2462 34.7413 49.3582 34.1067 49.4702 33.248C49.5822 32.3893 49.6755 31.4187 49.7502 30.336C49.8435 29.2347 49.9182 28.124 49.9742 27.004C50.0488 25.884 50.1048 24.848 50.1422 23.896C50.1795 22.944 50.1982 22.188 50.1982 21.628C50.1982 20.6387 50.1235 19.9293 49.9742 19.5C49.8435 19.0707 49.4702 18.856 48.8542 18.856C48.6675 18.856 48.4622 18.8747 48.2382 18.912C48.0142 18.9493 47.7622 18.996 47.4822 19.052L47.9862 18.212C48.1728 18.2307 48.4622 18.268 48.8542 18.324C49.2648 18.3613 49.7315 18.3987 50.2542 18.436C50.7768 18.4547 51.2808 18.464 51.7662 18.464C52.0462 18.464 52.4102 18.4547 52.8582 18.436C53.3062 18.4173 53.7635 18.3893 54.2302 18.352C54.7155 18.3147 55.1448 18.2867 55.5182 18.268C55.9102 18.2493 56.1715 18.24 56.3022 18.24C57.8888 18.24 59.1488 18.52 60.0822 19.08C61.0155 19.64 61.4822 20.6573 61.4822 22.132C61.4822 22.916 61.2955 23.6907 60.9222 24.456C60.5675 25.2027 60.0915 25.8467 59.4942 26.388C58.8968 26.9293 58.2528 27.3027 57.5622 27.508C58.0475 28.516 58.6355 29.552 59.3262 30.616C60.0168 31.68 60.7635 32.66 61.5662 33.556C62.3875 34.452 63.2275 35.1707 64.0862 35.712C64.9635 36.2347 65.8315 36.4773 66.6902 36.44L66.3542 37.056C65.9435 37.0933 65.5608 37.14 65.2062 37.196C64.8515 37.2707 64.4875 37.308 64.1142 37.308ZM75.5305 38.064C75.4558 37.896 75.3532 37.728 75.2225 37.56C75.1105 37.392 74.9238 37.1587 74.6625 36.86C74.2518 36.356 73.9905 35.9267 73.8785 35.572C73.9158 35.684 73.8692 35.5067 73.7385 35.04C73.6078 34.5733 73.4305 33.9293 73.2065 33.108C72.9825 32.2867 72.7305 31.4 72.4505 30.448C72.1892 29.4773 71.9278 28.544 71.6665 27.648C71.4238 26.7333 71.2092 25.9493 71.0225 25.296C70.8545 24.6427 70.7425 24.232 70.6865 24.064C70.3505 22.832 70.0798 21.8427 69.8745 21.096C69.6692 20.3307 69.3892 19.7707 69.0345 19.416C68.6985 19.0613 68.1385 18.884 67.3545 18.884C67.1865 18.884 67.0372 18.8933 66.9065 18.912C66.7758 18.9307 66.6545 18.9493 66.5425 18.968L66.9905 18.128C67.0838 18.1467 67.2892 18.1747 67.6065 18.212C67.9425 18.2493 68.3158 18.2773 68.7265 18.296C69.1558 18.3147 69.5572 18.3333 69.9305 18.352C70.3225 18.3707 70.6118 18.38 70.7985 18.38C71.3958 18.38 72.0398 18.3613 72.7305 18.324C73.4398 18.268 74.2052 18.1933 75.0265 18.1L74.4105 18.968C74.0745 18.9493 73.7292 18.9773 73.3745 19.052C73.0198 19.108 72.7305 19.2387 72.5065 19.444C72.3012 19.6493 72.2265 19.9573 72.2825 20.368C72.3945 21.1707 72.5812 22.1227 72.8425 23.224C73.1038 24.3067 73.4025 25.464 73.7385 26.696C74.0932 27.9093 74.4665 29.1227 74.8585 30.336C75.2505 31.5307 75.6238 32.6507 75.9785 33.696C76.1092 33.528 76.3145 33.2013 76.5945 32.716C76.8745 32.2307 77.1825 31.652 77.5185 30.98C77.8732 30.308 78.2185 29.608 78.5545 28.88C78.9092 28.152 79.2265 27.4707 79.5065 26.836C80.3278 24.9507 80.9718 23.4013 81.4385 22.188C81.9052 20.956 82.1385 20.1627 82.1385 19.808C82.1385 19.4533 81.9985 19.22 81.7185 19.108C81.4385 18.996 81.1025 18.94 80.7105 18.94C80.5425 18.94 80.3652 18.9493 80.1785 18.968C79.9918 18.9867 79.8052 19.0053 79.6185 19.024L80.2625 18.128C80.3932 18.184 80.6825 18.2307 81.1305 18.268C81.5972 18.2867 82.0918 18.296 82.6145 18.296C83.1372 18.296 83.5665 18.296 83.9025 18.296C84.5185 18.296 85.1718 18.2867 85.8625 18.268C86.5532 18.2493 87.1972 18.2027 87.7945 18.128L87.2625 18.912C86.6465 18.912 86.0305 19.08 85.4145 19.416C84.4065 20.032 82.6612 22.888 80.1785 27.984C77.8638 32.744 76.4638 36.0387 75.9785 37.868L75.5305 38.064Z" fill="#898989"/>
<path d="M398.114 36.308C396.975 36.308 395.977 36.1027 395.118 35.692C394.278 35.2627 393.597 34.6187 393.074 33.76C392.271 32.4347 391.627 31.3893 391.142 30.624C390.675 29.84 390.311 29.2427 390.05 28.832C389.789 28.4213 389.574 28.1133 389.406 27.908C389.238 27.684 389.061 27.488 388.874 27.32C388.575 27.3573 388.286 27.3853 388.006 27.404C387.745 27.4227 387.483 27.432 387.222 27.432L387.67 26.676C389.201 26.676 390.461 26.284 391.45 25.5C392.439 24.716 392.99 23.5867 393.102 22.112C393.158 20.936 392.831 20.0213 392.122 19.368C391.431 18.7147 390.554 18.388 389.49 18.388C388.743 18.388 388.146 18.416 387.698 18.472C387.269 18.528 387.007 18.7427 386.914 19.116C386.821 19.676 386.727 20.4227 386.634 21.356C386.541 22.2893 386.447 23.316 386.354 24.436C386.261 25.556 386.177 26.676 386.102 27.796C386.027 28.8973 385.962 29.9053 385.906 30.82C385.869 31.7347 385.85 32.4533 385.85 32.976C385.85 33.7413 385.934 34.292 386.102 34.628C386.289 34.964 386.615 35.1693 387.082 35.244C387.567 35.3187 388.249 35.356 389.126 35.356L388.622 36.196C388.081 36.1027 387.502 36.0373 386.886 36C386.27 35.944 385.626 35.916 384.954 35.916C384.469 35.916 383.769 35.944 382.854 36C381.958 36.0373 380.857 36.1027 379.55 36.196L379.942 35.384C380.091 35.4213 380.241 35.44 380.39 35.44C380.707 35.44 381.062 35.3933 381.454 35.3C381.865 35.188 382.229 35.0387 382.546 34.852C382.863 34.6467 383.059 34.4133 383.134 34.152C383.246 33.7413 383.358 33.1067 383.47 32.248C383.582 31.3893 383.675 30.4187 383.75 29.336C383.843 28.2347 383.918 27.124 383.974 26.004C384.049 24.884 384.105 23.848 384.142 22.896C384.179 21.944 384.198 21.188 384.198 20.628C384.198 19.6387 384.123 18.9293 383.974 18.5C383.843 18.0707 383.47 17.856 382.854 17.856C382.667 17.856 382.462 17.8747 382.238 17.912C382.014 17.9493 381.762 17.996 381.482 18.052L381.986 17.212C382.173 17.2307 382.462 17.268 382.854 17.324C383.265 17.3613 383.731 17.3987 384.254 17.436C384.777 17.4547 385.281 17.464 385.766 17.464C386.046 17.464 386.41 17.4547 386.858 17.436C387.306 17.4173 387.763 17.3893 388.23 17.352C388.715 17.3147 389.145 17.2867 389.518 17.268C389.91 17.2493 390.171 17.24 390.302 17.24C391.889 17.24 393.149 17.52 394.082 18.08C395.015 18.64 395.482 19.6573 395.482 21.132C395.482 21.916 395.295 22.6907 394.922 23.456C394.567 24.2027 394.091 24.8467 393.494 25.388C392.897 25.9293 392.253 26.3027 391.562 26.508C392.047 27.516 392.635 28.552 393.326 29.616C394.017 30.68 394.763 31.66 395.566 32.556C396.387 33.452 397.227 34.1707 398.086 34.712C398.963 35.2347 399.831 35.4773 400.69 35.44L400.354 36.056C399.943 36.0933 399.561 36.14 399.206 36.196C398.851 36.2707 398.487 36.308 398.114 36.308ZM409.531 37.064C409.456 36.896 409.353 36.728 409.223 36.56C409.111 36.392 408.924 36.1587 408.663 35.86C408.252 35.356 407.991 34.9267 407.879 34.572C407.916 34.684 407.869 34.5067 407.739 34.04C407.608 33.5733 407.431 32.9293 407.207 32.108C406.983 31.2867 406.731 30.4 406.451 29.448C406.189 28.4773 405.928 27.544 405.667 26.648C405.424 25.7333 405.209 24.9493 405.023 24.296C404.855 23.6427 404.743 23.232 404.687 23.064C404.351 21.832 404.08 20.8427 403.875 20.096C403.669 19.3307 403.389 18.7707 403.035 18.416C402.699 18.0613 402.139 17.884 401.355 17.884C401.187 17.884 401.037 17.8933 400.907 17.912C400.776 17.9307 400.655 17.9493 400.543 17.968L400.991 17.128C401.084 17.1467 401.289 17.1747 401.607 17.212C401.943 17.2493 402.316 17.2773 402.727 17.296C403.156 17.3147 403.557 17.3333 403.931 17.352C404.323 17.3707 404.612 17.38 404.799 17.38C405.396 17.38 406.04 17.3613 406.731 17.324C407.44 17.268 408.205 17.1933 409.027 17.1L408.411 17.968C408.075 17.9493 407.729 17.9773 407.375 18.052C407.02 18.108 406.731 18.2387 406.507 18.444C406.301 18.6493 406.227 18.9573 406.283 19.368C406.395 20.1707 406.581 21.1227 406.843 22.224C407.104 23.3067 407.403 24.464 407.739 25.696C408.093 26.9093 408.467 28.1227 408.859 29.336C409.251 30.5307 409.624 31.6507 409.979 32.696C410.109 32.528 410.315 32.2013 410.595 31.716C410.875 31.2307 411.183 30.652 411.519 29.98C411.873 29.308 412.219 28.608 412.555 27.88C412.909 27.152 413.227 26.4707 413.507 25.836C414.328 23.9507 414.972 22.4013 415.439 21.188C415.905 19.956 416.139 19.1627 416.139 18.808C416.139 18.4533 415.999 18.22 415.719 18.108C415.439 17.996 415.103 17.94 414.711 17.94C414.543 17.94 414.365 17.9493 414.179 17.968C413.992 17.9867 413.805 18.0053 413.619 18.024L414.263 17.128C414.393 17.184 414.683 17.2307 415.131 17.268C415.597 17.2867 416.092 17.296 416.615 17.296C417.137 17.296 417.567 17.296 417.903 17.296C418.519 17.296 419.172 17.2867 419.863 17.268C420.553 17.2493 421.197 17.2027 421.795 17.128L421.263 17.912C420.647 17.912 420.031 18.08 419.415 18.416C418.407 19.032 416.661 21.888 414.179 26.984C411.864 31.744 410.464 35.0387 409.979 36.868L409.531 37.064Z" fill="#898989"/>
<path d="M449.288 36.198C448.556 36.198 447.914 36.066 447.362 35.802C446.822 35.526 446.384 35.112 446.048 34.56C445.532 33.708 445.118 33.036 444.806 32.544C444.506 32.04 444.272 31.656 444.104 31.392C443.936 31.128 443.798 30.93 443.69 30.798C443.582 30.654 443.468 30.528 443.348 30.42C443.156 30.444 442.97 30.462 442.79 30.474C442.622 30.486 442.454 30.492 442.286 30.492L442.574 30.006C443.558 30.006 444.368 29.754 445.004 29.25C445.64 28.746 445.994 28.02 446.066 27.072C446.102 26.316 445.892 25.728 445.436 25.308C444.992 24.888 444.428 24.678 443.744 24.678C443.264 24.678 442.88 24.696 442.592 24.732C442.316 24.768 442.148 24.906 442.088 25.146C442.028 25.506 441.968 25.986 441.908 26.586C441.848 27.186 441.788 27.846 441.728 28.566C441.668 29.286 441.614 30.006 441.566 30.726C441.518 31.434 441.476 32.082 441.44 32.67C441.416 33.258 441.404 33.72 441.404 34.056C441.404 34.548 441.458 34.902 441.566 35.118C441.686 35.334 441.896 35.466 442.196 35.514C442.508 35.562 442.946 35.586 443.51 35.586L443.186 36.126C442.838 36.066 442.466 36.024 442.07 36C441.674 35.964 441.26 35.946 440.828 35.946C440.516 35.946 440.066 35.964 439.478 36C438.902 36.024 438.194 36.066 437.354 36.126L437.606 35.604C437.702 35.628 437.798 35.64 437.894 35.64C438.098 35.64 438.326 35.61 438.578 35.55C438.842 35.478 439.076 35.382 439.28 35.262C439.484 35.13 439.61 34.98 439.658 34.812C439.73 34.548 439.802 34.14 439.874 33.588C439.946 33.036 440.006 32.412 440.054 31.716C440.114 31.008 440.162 30.294 440.198 29.574C440.246 28.854 440.282 28.188 440.306 27.576C440.33 26.964 440.342 26.478 440.342 26.118C440.342 25.482 440.294 25.026 440.198 24.75C440.114 24.474 439.874 24.336 439.478 24.336C439.358 24.336 439.226 24.348 439.082 24.372C438.938 24.396 438.776 24.426 438.596 24.462L438.92 23.922C439.04 23.934 439.226 23.958 439.478 23.994C439.742 24.018 440.042 24.042 440.378 24.066C440.714 24.078 441.038 24.084 441.35 24.084C441.53 24.084 441.764 24.078 442.052 24.066C442.34 24.054 442.634 24.036 442.934 24.012C443.246 23.988 443.522 23.97 443.762 23.958C444.014 23.946 444.182 23.94 444.266 23.94C445.286 23.94 446.096 24.12 446.696 24.48C447.296 24.84 447.596 25.494 447.596 26.442C447.596 26.946 447.476 27.444 447.236 27.936C447.008 28.416 446.702 28.83 446.318 29.178C445.934 29.526 445.52 29.766 445.076 29.898C445.388 30.546 445.766 31.212 446.21 31.896C446.654 32.58 447.134 33.21 447.65 33.786C448.178 34.362 448.718 34.824 449.27 35.172C449.834 35.508 450.392 35.664 450.944 35.64L450.728 36.036C450.464 36.06 450.218 36.09 449.99 36.126C449.762 36.174 449.528 36.198 449.288 36.198ZM456.627 36.684C456.579 36.576 456.513 36.468 456.429 36.36C456.357 36.252 456.237 36.102 456.069 35.91C455.805 35.586 455.637 35.31 455.565 35.082C455.589 35.154 455.559 35.04 455.475 34.74C455.391 34.44 455.277 34.026 455.133 33.498C454.989 32.97 454.827 32.4 454.647 31.788C454.479 31.164 454.311 30.564 454.143 29.988C453.987 29.4 453.849 28.896 453.729 28.476C453.621 28.056 453.549 27.792 453.513 27.684C453.297 26.892 453.123 26.256 452.991 25.776C452.859 25.284 452.679 24.924 452.451 24.696C452.235 24.468 451.875 24.354 451.371 24.354C451.263 24.354 451.167 24.36 451.083 24.372C450.999 24.384 450.921 24.396 450.849 24.408L451.137 23.868C451.197 23.88 451.329 23.898 451.533 23.922C451.749 23.946 451.989 23.964 452.253 23.976C452.529 23.988 452.787 24 453.027 24.012C453.279 24.024 453.465 24.03 453.585 24.03C453.969 24.03 454.383 24.018 454.827 23.994C455.283 23.958 455.775 23.91 456.303 23.85L455.907 24.408C455.691 24.396 455.469 24.414 455.241 24.462C455.013 24.498 454.827 24.582 454.683 24.714C454.551 24.846 454.503 25.044 454.539 25.308C454.611 25.824 454.731 26.436 454.899 27.144C455.067 27.84 455.259 28.584 455.475 29.376C455.703 30.156 455.943 30.936 456.195 31.716C456.447 32.484 456.687 33.204 456.915 33.876C456.999 33.768 457.131 33.558 457.311 33.246C457.491 32.934 457.689 32.562 457.905 32.13C458.133 31.698 458.355 31.248 458.571 30.78C458.799 30.312 459.003 29.874 459.183 29.466C459.711 28.254 460.125 27.258 460.425 26.478C460.725 25.686 460.875 25.176 460.875 24.948C460.875 24.72 460.785 24.57 460.605 24.498C460.425 24.426 460.209 24.39 459.957 24.39C459.849 24.39 459.735 24.396 459.615 24.408C459.495 24.42 459.375 24.432 459.255 24.444L459.669 23.868C459.753 23.904 459.939 23.934 460.227 23.958C460.527 23.97 460.845 23.976 461.181 23.976C461.517 23.976 461.793 23.976 462.009 23.976C462.405 23.976 462.825 23.97 463.269 23.958C463.713 23.946 464.127 23.916 464.511 23.868L464.169 24.372C463.773 24.372 463.377 24.48 462.981 24.696C462.333 25.092 461.211 26.928 459.615 30.204C458.127 33.264 457.227 35.382 456.915 36.558L456.627 36.684Z" fill="#333333"/>
<path d="M14.2877 35.198C13.5557 35.198 12.9137 35.066 12.3617 34.802C11.8217 34.526 11.3837 34.112 11.0477 33.56C10.5317 32.708 10.1177 32.036 9.80567 31.544C9.50567 31.04 9.27167 30.656 9.10367 30.392C8.93567 30.128 8.79767 29.93 8.68967 29.798C8.58167 29.654 8.46767 29.528 8.34767 29.42C8.15567 29.444 7.96967 29.462 7.78967 29.474C7.62167 29.486 7.45367 29.492 7.28567 29.492L7.57367 29.006C8.55767 29.006 9.36767 28.754 10.0037 28.25C10.6397 27.746 10.9937 27.02 11.0657 26.072C11.1017 25.316 10.8917 24.728 10.4357 24.308C9.99167 23.888 9.42767 23.678 8.74367 23.678C8.26367 23.678 7.87967 23.696 7.59167 23.732C7.31567 23.768 7.14767 23.906 7.08767 24.146C7.02767 24.506 6.96767 24.986 6.90767 25.586C6.84767 26.186 6.78767 26.846 6.72767 27.566C6.66767 28.286 6.61367 29.006 6.56567 29.726C6.51767 30.434 6.47567 31.082 6.43967 31.67C6.41567 32.258 6.40367 32.72 6.40367 33.056C6.40367 33.548 6.45767 33.902 6.56567 34.118C6.68567 34.334 6.89567 34.466 7.19567 34.514C7.50767 34.562 7.94567 34.586 8.50967 34.586L8.18567 35.126C7.83767 35.066 7.46567 35.024 7.06967 35C6.67367 34.964 6.25967 34.946 5.82767 34.946C5.51567 34.946 5.06567 34.964 4.47767 35C3.90167 35.024 3.19367 35.066 2.35367 35.126L2.60567 34.604C2.70167 34.628 2.79767 34.64 2.89367 34.64C3.09767 34.64 3.32567 34.61 3.57767 34.55C3.84167 34.478 4.07567 34.382 4.27967 34.262C4.48367 34.13 4.60967 33.98 4.65767 33.812C4.72967 33.548 4.80167 33.14 4.87367 32.588C4.94567 32.036 5.00567 31.412 5.05367 30.716C5.11367 30.008 5.16167 29.294 5.19767 28.574C5.24567 27.854 5.28167 27.188 5.30567 26.576C5.32967 25.964 5.34167 25.478 5.34167 25.118C5.34167 24.482 5.29367 24.026 5.19767 23.75C5.11367 23.474 4.87367 23.336 4.47767 23.336C4.35767 23.336 4.22567 23.348 4.08167 23.372C3.93767 23.396 3.77567 23.426 3.59567 23.462L3.91967 22.922C4.03967 22.934 4.22567 22.958 4.47767 22.994C4.74167 23.018 5.04167 23.042 5.37767 23.066C5.71367 23.078 6.03767 23.084 6.34967 23.084C6.52967 23.084 6.76367 23.078 7.05167 23.066C7.33967 23.054 7.63367 23.036 7.93367 23.012C8.24567 22.988 8.52167 22.97 8.76167 22.958C9.01367 22.946 9.18167 22.94 9.26567 22.94C10.2857 22.94 11.0957 23.12 11.6957 23.48C12.2957 23.84 12.5957 24.494 12.5957 25.442C12.5957 25.946 12.4757 26.444 12.2357 26.936C12.0077 27.416 11.7017 27.83 11.3177 28.178C10.9337 28.526 10.5197 28.766 10.0757 28.898C10.3877 29.546 10.7657 30.212 11.2097 30.896C11.6537 31.58 12.1337 32.21 12.6497 32.786C13.1777 33.362 13.7177 33.824 14.2697 34.172C14.8337 34.508 15.3917 34.664 15.9437 34.64L15.7277 35.036C15.4637 35.06 15.2177 35.09 14.9897 35.126C14.7617 35.174 14.5277 35.198 14.2877 35.198ZM21.6268 35.684C21.5788 35.576 21.5128 35.468 21.4288 35.36C21.3568 35.252 21.2368 35.102 21.0688 34.91C20.8048 34.586 20.6368 34.31 20.5648 34.082C20.5888 34.154 20.5588 34.04 20.4748 33.74C20.3908 33.44 20.2768 33.026 20.1328 32.498C19.9888 31.97 19.8268 31.4 19.6468 30.788C19.4788 30.164 19.3108 29.564 19.1428 28.988C18.9868 28.4 18.8488 27.896 18.7288 27.476C18.6208 27.056 18.5488 26.792 18.5128 26.684C18.2968 25.892 18.1228 25.256 17.9908 24.776C17.8588 24.284 17.6788 23.924 17.4508 23.696C17.2348 23.468 16.8748 23.354 16.3708 23.354C16.2628 23.354 16.1668 23.36 16.0828 23.372C15.9988 23.384 15.9208 23.396 15.8488 23.408L16.1368 22.868C16.1968 22.88 16.3288 22.898 16.5328 22.922C16.7488 22.946 16.9888 22.964 17.2528 22.976C17.5288 22.988 17.7868 23 18.0268 23.012C18.2788 23.024 18.4648 23.03 18.5848 23.03C18.9688 23.03 19.3828 23.018 19.8268 22.994C20.2828 22.958 20.7748 22.91 21.3028 22.85L20.9068 23.408C20.6908 23.396 20.4688 23.414 20.2408 23.462C20.0128 23.498 19.8268 23.582 19.6828 23.714C19.5508 23.846 19.5028 24.044 19.5388 24.308C19.6108 24.824 19.7308 25.436 19.8988 26.144C20.0668 26.84 20.2588 27.584 20.4748 28.376C20.7028 29.156 20.9428 29.936 21.1948 30.716C21.4468 31.484 21.6868 32.204 21.9148 32.876C21.9988 32.768 22.1308 32.558 22.3108 32.246C22.4908 31.934 22.6888 31.562 22.9048 31.13C23.1328 30.698 23.3548 30.248 23.5708 29.78C23.7988 29.312 24.0028 28.874 24.1828 28.466C24.7108 27.254 25.1248 26.258 25.4248 25.478C25.7248 24.686 25.8748 24.176 25.8748 23.948C25.8748 23.72 25.7848 23.57 25.6048 23.498C25.4248 23.426 25.2088 23.39 24.9568 23.39C24.8488 23.39 24.7348 23.396 24.6148 23.408C24.4948 23.42 24.3748 23.432 24.2548 23.444L24.6688 22.868C24.7528 22.904 24.9388 22.934 25.2268 22.958C25.5268 22.97 25.8448 22.976 26.1808 22.976C26.5168 22.976 26.7928 22.976 27.0088 22.976C27.4048 22.976 27.8248 22.97 28.2688 22.958C28.7128 22.946 29.1268 22.916 29.5108 22.868L29.1688 23.372C28.7728 23.372 28.3768 23.48 27.9808 23.696C27.3328 24.092 26.2108 25.928 24.6148 29.204C23.1268 32.264 22.2268 34.382 21.9148 35.558L21.6268 35.684Z" fill="#343434" fill-opacity="0.96"/>
</svg>
